<svg height="96" width="96" xmlns="http://www.w3.org/2000/svg" xmlns:xlink="http://www.w3.org/1999/xlink"><linearGradient id="a"><stop offset="0" stop-color="#dbdbe3"/><stop offset="1" stop-color="#dbdbe3" stop-opacity="0"/></linearGradient><linearGradient id="b"><stop offset="0" stop-color="#fefefe"/><stop offset="1" stop-color="#fefefe" stop-opacity="0"/></linearGradient><linearGradient id="c" gradientUnits="userSpaceOnUse" x1="36.357143" x2="36.357143" xlink:href="#b" y1="6" y2="63.893143"/><radialGradient id="d" cx="47.098362" cy="78.286942" gradientTransform="matrix(2.206273 0 -.00000002 1.3123934 -56.813483 -24.218731)" gradientUnits="userSpaceOnUse" r="38.957481"><stop offset="0" stop-color="#e0d8b8"/><stop offset="1" stop-color="#b6a357"/></radialGradient><radialGradient id="e" cx="48" cy="90.171875" gradientTransform="matrix(1.1573129 0 0 .99590774 -7.551021 .197132)" gradientUnits="userSpaceOnUse" r="42" xlink:href="#b"/><linearGradient id="f" gradientUnits="userSpaceOnUse" x1="48" x2="48" y1="90" y2="5.987717"><stop offset="0" stop-color="#673c1c"/><stop offset="1" stop-color="#b87443"/></linearGradient><clipPath id="g"><rect height="84" rx="6" width="84" x="6" y="6"/></clipPath><filter id="h" color-interpolation-filters="sRGB" height="1.384" width="1.384" x="-.192" y="-.192"><feGaussianBlur stdDeviation="5.28"/></filter><linearGradient id="i" gradientUnits="userSpaceOnUse" x1="48" x2="48" xlink:href="#b" y1="20.220806" y2="138.66119"/><linearGradient id="j" gradientTransform="matrix(1.0058652 0 0 .994169 100 0)" gradientUnits="userSpaceOnUse" x1="45.447727" x2="45.447727" y1="92.539597" y2="7.01654"><stop offset="0"/><stop offset="1" stop-opacity=".588235"/></linearGradient><linearGradient id="k" gradientTransform="matrix(1.0238095 0 0 1.0119048 -1.142857 -98.071429)" gradientUnits="userSpaceOnUse" x1="32.251034" x2="32.251034" xlink:href="#j" y1="6.131708" y2="90.238609"/><linearGradient id="l" gradientTransform="translate(0 -97)" gradientUnits="userSpaceOnUse" x1="32.251034" x2="32.251034" xlink:href="#j" y1="6.131708" y2="90.238609"/><linearGradient id="m" gradientUnits="userSpaceOnUse" x1="15.5" x2="28.5" y1="50.5" y2="50.5"><stop offset="0" stop-color="#5a260f"/><stop offset=".5" stop-color="#92472a"/><stop offset="1" stop-color="#7a3b23"/></linearGradient><linearGradient id="n" gradientUnits="userSpaceOnUse" x1="-61.641769" x2="-36.37875" y1="19.791775" y2="19.791775"><stop offset="0" stop-color="#e5c90a"/><stop offset="1" stop-color="#fff4c8"/></linearGradient><linearGradient id="o" gradientUnits="userSpaceOnUse" x1="30" x2="42" y1="51.5" y2="51.5"><stop offset="0" stop-color="#43565a"/><stop offset=".33333334" stop-color="#87a1a6"/><stop offset=".5" stop-color="#8aa1a7"/><stop offset=".75" stop-color="#6a888e"/><stop offset="1" stop-color="#3d4f52"/></linearGradient><radialGradient id="p" cx="36" cy="80.456055" gradientTransform="matrix(-1.3333334 0 0 -.12638863 84.000001 80.66873)" gradientUnits="userSpaceOnUse" r="6" xlink:href="#a"/><radialGradient id="q" cx="36" cy="80.456055" gradientTransform="matrix(-1.3333334 0 0 -.12638863 84.000001 50.66873)" gradientUnits="userSpaceOnUse" r="6" xlink:href="#a"/><radialGradient id="r" cx="65" cy="49.75" gradientTransform="matrix(.00000006 -11.11111 6.6666667 .00000096 -266.66667 793.22208)" gradientUnits="userSpaceOnUse" r="4.5"><stop offset="0" stop-color="#ad010f"/><stop offset="1" stop-color="#5b0108"/></radialGradient><radialGradient id="s" cx="80" cy="49" gradientTransform="matrix(.00000056 9.0000002 -5 .00000035 324.49995 -679.50003)" gradientUnits="userSpaceOnUse" r="5"><stop offset="0" stop-color="#87befa"/><stop offset="1" stop-color="#0967cd"/></radialGradient><g><g><g fill="url(#k)"><path d="m12-95.03125c-5.5110903 0-10.03125 4.52016-10.03125 10.03125v71c0 5.5110902 4.5201598 10.03125 10.03125 10.03125h72c5.51109 0 10.03125-4.5201597 10.03125-10.03125v-71c0-5.51109-4.52016-10.03125-10.03125-10.03125z" opacity=".08" transform="scale(1 -1)"/><path d="m12-94.03125c-4.971633 0-9.03125 4.059617-9.03125 9.03125v71c0 4.9716329 4.0596171 9.03125 9.03125 9.03125h72c4.971633 0 9.03125-4.059617 9.03125-9.03125v-71c0-4.971633-4.059617-9.03125-9.03125-9.03125z" opacity=".1" transform="scale(1 -1)"/><path d="m12-93c-4.4091333 0-8 3.590867-8 8v71c0 4.4091333 3.5908667 8 8 8h72c4.409133 0 8-3.5908667 8-8v-71c0-4.409133-3.590867-8-8-8z" opacity=".2" transform="scale(1 -1)"/><rect height="85" opacity=".3" rx="7" transform="scale(1 -1)" width="86" x="5" y="-92"/></g><rect fill="url(#l)" height="84" opacity=".45" rx="6" transform="scale(1 -1)" width="84" x="6" y="-91"/></g><rect fill="url(#d)" height="78.516495" rx="5.852768" ry="6.173287" width="77.914963" x="8.140881" y="8.254433"/><g fill="none"><rect height="73" opacity=".1" rx="3.946" ry="3.945946" stroke="#000" stroke-width="7" width="73" x="11.5" y="11.5"/><rect height="73" opacity=".2" rx="3.946" ry="3.945946" stroke="#000" stroke-width="5" width="73" x="11.5" y="11.5"/><rect height="73" rx="3.946" ry="3.945946" stroke="#4d2c15" stroke-width="3" width="73" x="11.5" y="11.5"/><rect height="73" opacity=".05" rx="3.946" ry="3.945946" stroke="#000" stroke-width="9" width="73" x="11.5" y="11.5"/></g></g><rect fill="url(#m)" fill-rule="evenodd" height="50" rx="1" stroke="#502d16" width="13" x="15.5" y="25.5"/><text fill="#806600" font-family="sans-serif" letter-spacing="0" transform="matrix(0 -.98958873 1.0105208 0 0 0)" word-spacing="0" x="-66.694374" y="24.64529"><tspan fill="#806600" font-family="Tibetan Machine Uni" font-size="6.446176" x="-66.694374" y="24.64529">CALIBRE</tspan></text><path d="m16 32.5h12" fill="#502d16" stroke="#784421"/><path d="m16 31.5h12" fill="none" stroke="#28170b"/><path d="m16 69.5h12" fill="#502d16" stroke="#784421"/><path d="m16 68.5h12" fill="none" stroke="#28170b"/><g fill="url(#n)" transform="matrix(0 -.98958872 1.0105208 0 0 0)"><path d="m-62.079654 21.749547h-.289574q-.113312-.384-.201443-.598034-.08184-.220328-.169968-.384-.188853-.32105-.484722-.497313-.289574-.176262-.6421-.176262-.314754 0-.598033.163672-.276985.157377-.434362.440657-.163672.302164-.245509.69246-.07554.384001-.07554.950559 0 1.070166.34623 1.586364.352526.509902 1.089052.509902.402886 0 .71764-.169967.314755-.169968.516198-.522493.08813-.144787.144787-.327345.05666-.188853.107017-.453247l.314755.05666q-.113312.837248-.598034 1.277904-.484723.440657-1.2842.440657-.484722 0-.893903-.176263-.402886-.182558-.698755-.503607-.29587-.32105-.465837-.768002-.163673-.446951-.163673-.982034 0-.509903.151083-.931674.151082-.428067.465837-.805772.33364-.396591.73023-.585444.402886-.195148.887609-.195148.163672 0 .302164.01889.138492.01889.270689.06925.132197.05036.270689.138492.144787.08184.32105.214034l.264394-.384001h.251804z"/><path d="m-57.459055 23.921355q.05666.138492.100721.226623.05036.08184.107017.125902.06295.04407.144787.05666.08184.01259.201443.01259h.09443v.302164h-2.045906v-.302164h.283279q.182558 0 .289575-.04407.113311-.04406.113311-.132197 0-.02518-.01259-.06295-.0063-.03777-.03777-.113311l-.352526-.900199h-1.743741l-.226623.591739q-.05666.163672-.05666.283279 0 .377706.535083.377706h.132197v.302164h-1.743741v-.302164h.02518q.132197 0 .258099-.05666.125902-.06295.201443-.151082.03777-.03777.06295-.07554.02518-.03777.05036-.08813.03148-.05036.06295-.125902.03777-.08184.08813-.207738l1.517118-3.846302h.276984zm-2.732071-1.170888h1.479347l-.742821-1.869643z"/><path d="m-54.481476 19.886199v.30846h-.119606q-.201443 0-.32105.01259-.113312.0063-.176263.04407-.05666.03147-.07554.09443-.01889.05666-.01889.157378v3.512662q0 .107017.0063.151082.01259.03777.04407.06925.04407.04407.157378.07554.119607.02518.270689.02518h.270689q.415476 0 .70505-.08813.289575-.09443.440657-.289574.132197-.163672.232918-.472132.107017-.314755.157378-.648395h.289574l-.138492 1.806692h-3.877778v-.308459h.119607q.201443 0 .314755-.0063.119606-.01259.182557-.04407.06295-.03148.07554-.08813.01889-.06295.01889-.169968v-3.525252q0-.100722-.01889-.157378-.01259-.06295-.07554-.09443-.06295-.03777-.182557-.04407-.113312-.01259-.314755-.01259h-.119607v-.30846z"/><path d="m-50.030844 19.886199v.302165h-.125902q-.201443 0-.32105.01259-.113312.0063-.176263.04407-.06295.03148-.08184.09443-.01888.05666-.01888.157378v3.531547q0 .107017.01888.169968.01888.05666.08184.08813.06295.03148.176263.04407.119607.0063.32105.0063h.125902v.308459h-2.178103v-.308459h.132197q.195148 0 .314755-.0063.119607-.01259.176262-.04407.06295-.03148.08184-.08813.01888-.06295.01888-.169968v-3.531547q0-.100722-.01888-.157378-.01889-.06295-.08184-.09443-.05665-.03777-.176262-.04407-.119607-.01259-.314755-.01259h-.132197v-.302165z"/><path d="m-47.210643 19.886199q.585444 0 .956854.151083.283279.125902.459542.409181.176263.283279.176263.598034 0 .251803-.119607.478427-.113312.226623-.314755.384001-.125902.09443-.264394.151082-.132197.05036-.365115.100721.673575.119607.994625.415477.321049.289574.321049.780591 0 .302165-.125901.541378-.125902.239214-.365116.409181-.232918.163673-.572853.251804-.33364.08813-.761707.08813h-2.379545v-.302164h.119607q.201443 0 .321049-.0063.119607-.01259.176263-.04407.06295-.03148.08184-.08813.01889-.06295.01889-.169968v-3.537842q0-.100722-.01889-.157378-.01888-.06295-.08184-.09443-.05666-.03777-.176263-.04407-.119606-.01259-.321049-.01259h-.119607v-.302165zm-.33364 2.146627q.635804 0 .900198-.207738.270689-.207738.270689-.69246 0-.276984-.09443-.484722-.08813-.207738-.270689-.314755-.220328-.144787-.698755-.144787h-.258099q-.258099 0-.352525.06925-.08813.06925-.08813.264394v1.510822zm-.591739 1.894824q0 .138492.01259.220328.01259.08184.05036.125902.04407.04407.119607.05666.07554.01259.201443.01259h.276984q.314755 0 .528788-.03777.214033-.03777.37141-.113311.188853-.100722.29587-.32105.107016-.226624.107016-.535083 0-.660985-.472132-.875018-.289574-.125902-.906493-.125902h-.585444z"/><path d="m-43.395815 24.034666q0 .107017.01259.169968.01889.05666.08184.08813.06295.03148.176262.04407.119607.0063.32105.0063h.119607v.302164h-2.152922v-.302164h.113311q.201443 0 .32105-.0063.119607-.01259.176263-.04407.06295-.03148.08184-.08813.01888-.06295.01888-.169968v-3.550433q0-.100721-.01888-.157377-.01888-.06295-.08184-.09443-.05666-.03777-.176263-.04407-.119607-.01259-.32105-.01259h-.113311v-.289575h2.272529q.837247 0 1.284199.30846.453247.302165.453247.875018 0 .497313-.346231.786887-.339935.283279-1.06387.384001.384.100721.591738.339935.214034.232918.327345.67987l.107017.421771q.08813.339935.151082.459542.06925.113312.182558.113312.132197 0 .195148-.157378.06925-.157377.08184-.503607h.283279q-.01888.598034-.220328.868723-.195148.270689-.604329.270689-.390296 0-.585444-.232919-.195148-.232918-.251804-.793182l-.03777-.339935q-.03777-.327345-.113312-.522492-.07554-.201443-.220328-.30846-.113312-.09443-.29587-.144787-.176262-.05666-.365115-.05666h-.384001zm.717641-2.00184q.239213 0 .446952-.05665.214033-.05666.339935-.163673.258099-.220328.258099-.742821 0-.893903-.956855-.893903h-.352525q-.107017 0-.176263.0063-.06295 0-.107016.0063-.03777.0063-.06295.01889-.01888.0063-.03777.01889-.02518.01889-.04407.03777-.01259.01259-.01889.05036-.0063.03148-.0063.08813 0 .05666 0 .151082v1.479347z"/><path d="m-36.106097 19.886199.08813 1.687086h-.28328q-.07554-.453247-.195147-.723936-.119607-.276984-.28328-.415476-.08184-.06295-.182557-.107017-.09443-.05036-.226624-.08184-.125902-.03148-.295869-.04407-.163673-.01259-.377706-.01259h-.339935q-.132197 0-.214033.01259-.08184.01259-.125902.05036-.04407.03147-.06295.100721-.01259.06295-.01259.169968v1.510822h.157377q.446952 0 .66728-.195147.232919-.214034.258099-.711346h.302165v2.152922h-.302165q-.0063-.289574-.06295-.465837-.05666-.176263-.182558-.302164-.100721-.107017-.251803-.138492-.144787-.03777-.446952-.03777h-.138492v1.687085q0 .107017.0063.151082.0063.03777.04407.06925.05036.04407.157377.07554.113312.02518.258099.02518h.446952q.818362 0 1.133116-.390296.119607-.144787.220329-.428066.100721-.28328.169967-.635805h.289575l-.125902 1.756331h-4.041451v-.302164h.113312q.201443 0 .32105-.0063.119607-.01259.176263-.04407.06295-.03148.08184-.08813.01888-.06295.01888-.169968v-3.537842q0-.100722-.01888-.157378-.01889-.06295-.08184-.09443-.05666-.03777-.176263-.04407-.119607-.01259-.32105-.01259h-.113312v-.302165z"/></g><rect fill="url(#o)" fill-rule="evenodd" height="40" rx="1" stroke="#1c2224" width="13" x="29.5" y="35.5"/><path d="m30 70v1h12v-1z" fill="url(#p)"/><path d="m30 40v1h12v-1z" fill="url(#q)"/><g fill="#0b1728" transform="matrix(0 -.58139888406 1.0967904 0 .850951 23.563239)"><path d="m-76.846618 29.717742h1.162197l.581098 3.543747 1.962397-3.543747h1.260634l-2.676862 4.740872h-1.457509z"/><path d="m-71.534173 30.902166h1.143144l-.695413 3.556448h-1.139969zm.266733-1.384474h1.143144l-.180998.927217h-1.146319z"/><path d="m-65.996276 32.292992-.422328 2.165622h-1.139968l.35882-1.854433q.03811-.180998.05716-.304839.02223-.127016.02223-.20005 0-.203225-.114315-.314364-.111139-.111139-.31754-.111139-.352469 0-.606501.276259-.250857.273085-.349294.758921l-.342943 1.749645h-1.139969l.692237-3.556448h1.143144l-.104788.520766q.314365-.308014.631905-.457258.31754-.149243.663658-.149243.492187 0 .758921.257207.266734.257207.266734.723991 0 .101613-.01588.225454-.0127.12384-.04128.269909z"/><path d="m-61.776169 31.013305-.180998.927217q-.228629-.152419-.450907-.231804-.222278-.07939-.43503-.07939-.555695 0-.908164.374697-.35247.371522-.35247.95262 0 .371522.219103.577923.219103.203226.619203.203226.266734 0 .523941-.07939.257207-.07939.489012-.23498l-.174647.930392q-.282611.09844-.568397.146069-.285786.05081-.574747.05081-.838306 0-1.292388-.374697-.450907-.377873-.450907-1.07011 0-.43503.165121-.844656.168296-.409627.479485-.736693.346119-.35882.79385-.533467.447732-.174647 1.032005-.174647.269909 0 .536643.05081.266733.04763.530292.146068z"/><path d="m-57.603694 32.813757-.03811.180998h-2.660985q0 .01905-.0032.05716-.0032.03493-.0032.05398 0 .346119.206401.51759.209577.171472.625554.171472.35882 0 .755745-.107964.400101-.107963.838306-.320715l-.174647.882761q-.415978.152419-.82878.225453-.409626.07621-.83513.07621-.831955 0-1.286037-.384223-.450907-.384224-.450907-1.085987 0-.406451.142893-.787499.146069-.384224.422329-.701764.327066-.381048.781148-.577923.457258-.196874 1.012953-.196874.720815 0 1.143144.384223.425503.384223.425503 1.03518 0 .127016-.01905.269909-.01588.139718-.05398.308014zm-1.073285-.520765q.0095-.04128.0127-.08256.0064-.04445.0064-.08574 0-.254032-.152419-.403275-.152419-.149244-.412802-.149244-.333417 0-.568397.184173-.231804.180998-.355644.536643z"/><path d="m-53.09145 32.292992-.422329 2.165622h-1.139968l.35882-1.854433q.03811-.180998.05716-.304839.02223-.127016.02223-.20005 0-.203225-.114314-.314364-.111139-.111139-.31754-.111139-.35247 0-.606502.276259-.250856.273085-.349294.758921l-.342943 1.749645h-1.139969l.692238-3.556448h1.143144l-.104789.520766q.314365-.308014.631905-.457258.31754-.149243.663659-.149243.492187 0 .75892.257207.266734.257207.266734.723991 0 .101613-.01588.225454-.0127.12384-.04128.269909z"/><path d="m-50.3098 29.892389-.1937 1.009777h1.162197l-.161946.812903h-1.162196l-.292137 1.505139q-.0127.05081-.01905.08574-.0032.03493-.0032.06668 0 .146068.09526.209576.09844.06351.327066.06351h.587449l-.161945.812902h-.955795q-.514415 0-.784324-.215927-.269909-.215927-.269909-.622378 0-.08891.0095-.190524.0095-.101613.02858-.206401l.292136-1.508315h-.55887l.155595-.812903h.565221l.196875-1.009777z"/><path d="m-46.216709 29.717742h1.222529l-.743043 3.816831h2.140219l-.174647.924041h-3.369099z"/><path d="m-40.99635 32.858213q-.425504 0-.644607.133367-.215927.130191-.215927.387398 0 .1937.127016.304839.130192.111139.355645.111139.349294 0 .584274-.209577.234979-.212751.314364-.596975l.0254-.130191zm1.775048-.428679-.396925 2.02908h-1.136793l.09526-.527116q-.279435.31754-.590624.469959-.31119.149244-.676361.149244-.504888 0-.803376-.260383-.295312-.263558-.295312-.708114 0-.679536.523941-1.038356.527116-.361995 1.517841-.361995h.67001l.0127-.08891q.0095-.04446.0095-.06351.0032-.01905.0032-.03493 0-.209576-.20005-.314365-.196875-.107963-.587449-.107963-.35247 0-.682711.07303-.330242.07303-.638256.219103l.171472-.866885q.355645-.08891.727166-.133366.374698-.04763.774798-.04763.790675 0 1.174898.273084.384223.269909.384223.825604 0 .107964-.01588.238155-.0127.127016-.04128.27626z"/><path d="m-38.176596 30.902166h1.047882l.12384 2.445058 1.073285-2.445058h.901814l.130191 2.438708 1.066935-2.438708h1.117741l-1.625805 3.556448h-1.206652l-.11749-2.445058-1.085987 2.445058h-1.178073z"/></g><g fill="#dbdee3" transform="matrix(0 -.58139888406 1.0967904 0 .850951 23.563239)"><path d="m-76.329032 29.717742h1.162197l.581098 3.543747 1.962397-3.543747h1.260634l-2.676862 4.740872h-1.457509z"/><path d="m-71.016588 30.902166h1.143144l-.695412 3.556448h-1.139969zm.266734-1.384474h1.143144l-.180998.927217h-1.146319z"/><path d="m-65.47869 32.292992-.422328 2.165622h-1.139969l.358821-1.854433q.0381-.180998.05716-.304839.02223-.127016.02223-.20005 0-.203225-.114315-.314364-.111139-.111139-.31754-.111139-.352469 0-.606501.276259-.250857.273085-.349294.758921l-.342943 1.749645h-1.139969l.692237-3.556448h1.143144l-.104788.520766q.314365-.308014.631905-.457258.31754-.149243.663658-.149243.492187 0 .758921.257207.266733.257207.266733.723991 0 .101613-.01588.225454-.0127.12384-.04128.269909z"/><path d="m-61.258584 31.013305-.180997.927217q-.228629-.152419-.450907-.231804-.222278-.07939-.43503-.07939-.555695 0-.908164.374697-.35247.371522-.35247.95262 0 .371522.219103.577923.219102.203226.619203.203226.266733 0 .523941-.07939.257207-.07939.489011-.23498l-.174647.930392q-.28261.09844-.568396.146069-.285786.05081-.574748.05081-.838305 0-1.292387-.374697-.450907-.377873-.450907-1.07011 0-.43503.165121-.844656.168296-.409627.479485-.736693.346119-.35882.79385-.533467.447731-.174647 1.032005-.174647.269909 0 .536643.05081.266733.04763.530291.146068z"/><path d="m-57.086108 32.813757-.0381.180998h-2.660985q0 .01905-.0032.05716-.0032.03493-.0032.05398 0 .346119.206401.51759.209576.171472.625554.171472.35882 0 .755745-.107964.4001-.107963.838305-.320715l-.174647.882761q-.415977.152419-.828779.225453-.409627.07621-.83513.07621-.831955 0-1.286037-.384223-.450907-.384224-.450907-1.085987 0-.406451.142893-.787499.146069-.384224.422328-.701764.327067-.381048.781149-.577923.457257-.196874 1.012952-.196874.720816 0 1.143144.384223.425504.384223.425504 1.03518 0 .127016-.01905.269909-.01588.139718-.05398.308014zm-1.073286-.520765q.0095-.04128.0127-.08256.0064-.04445.0064-.08574 0-.254032-.152419-.403275-.15242-.149244-.412802-.149244-.333417 0-.568397.184173-.231804.180998-.355645.536643z"/><path d="m-52.573865 32.292992-.422328 2.165622h-1.139968l.35882-1.854433q.03811-.180998.05716-.304839.02223-.127016.02223-.20005 0-.203225-.114315-.314364-.111139-.111139-.31754-.111139-.352469 0-.606501.276259-.250857.273085-.349294.758921l-.342943 1.749645h-1.139969l.692237-3.556448h1.143144l-.104788.520766q.314365-.308014.631905-.457258.31754-.149243.663658-.149243.492187 0 .758921.257207.266734.257207.266734.723991 0 .101613-.01588.225454-.0127.12384-.04128.269909z"/><path d="m-49.792215 29.892389-.193699 1.009777h1.162196l-.161945.812903h-1.162196l-.292137 1.505139q-.0127.05081-.01905.08574-.0032.03493-.0032.06668 0 .146068.09526.209576.09844.06351.327066.06351h.587449l-.161945.812902h-.955796q-.514414 0-.784323-.215927-.269909-.215927-.269909-.622378 0-.08891.0095-.190524.0095-.101613.02858-.206401l.292137-1.508315h-.55887l.155594-.812903h.565222l.196874-1.009777z"/><path d="m-45.699123 29.717742h1.222529l-.743044 3.816831h2.14022l-.174647.924041h-3.369099z"/><path d="m-40.478765 32.858213q-.425503 0-.644606.133367-.215927.130191-.215927.387398 0 .1937.127016.304839.130191.111139.355645.111139.349294 0 .584273-.209577.23498-.212751.314365-.596975l.0254-.130191zm1.775049-.428679-.396925 2.02908h-1.136793l.09526-.527116q-.279435.31754-.590625.469959-.311189.149244-.67636.149244-.504888 0-.803376-.260383-.295312-.263558-.295312-.708114 0-.679536.523941-1.038356.527116-.361995 1.517841-.361995h.670009l.0127-.08891q.0095-.04446.0095-.06351.0032-.01905.0032-.03493 0-.209576-.200051-.314365-.196874-.107963-.587449-.107963-.352469 0-.682711.07303-.330241.07303-.638255.219103l.171472-.866885q.355644-.08891.727166-.133366.374697-.04763.774798-.04763.790674 0 1.174898.273084.384223.269909.384223.825604 0 .107964-.01588.238155-.0127.127016-.04128.27626z"/><path d="m-37.659011 30.902166h1.047882l.123841 2.445058 1.073285-2.445058h.901814l.130191 2.438708 1.066935-2.438708h1.11774l-1.625804 3.556448h-1.206652l-.11749-2.445058-1.085987 2.445058h-1.178073z"/></g><g fill="#6c5d53" transform="matrix(.99378551 -.11131195 .11131195 .99378551 -5.326815 5.601191)"><path d="m45.663666 25.428869h3.672668c.406931 0 .734533.447266.734533 1.002839v48.136281c0 .555573-.327602 1.002839-.734533 1.002839 0 0-1.469067-.501419-1.836334-.501419s-1.836334.501419-1.836334.501419c-.399029.108957-.734533-.447266-.734533-1.002839v-48.136281c0-.555573.327602-1.002839.734533-1.002839z" stroke="#917c6f" stroke-width=".858265"/><g stroke="#ac9d93"><path d="m46.5 26v49"/><path d="m48.5 26v49"/></g></g><g fill="#6c5d53" transform="matrix(.98605165 -.16643955 .16643955 .98605165 -.744054 8.610329)"><path d="m45.663666 25.428869h3.672668c.406931 0 .734533.447266.734533 1.002839v48.136281c0 .555573-.327602 1.002839-.734533 1.002839 0 0-1.469067-.501419-1.836334-.501419s-1.836334.501419-1.836334.501419c-.399029.108957-.734533-.447266-.734533-1.002839v-48.136281c0-.555573.327602-1.002839.734533-1.002839z" stroke="#917c6f" stroke-width=".858265"/><g stroke="#ac9d93"><path d="m46.5 26v49"/><path d="m48.5 26v49"/></g></g><g transform="matrix(.98739327 -.15828624 .15828624 .98739327 -10.949123 11.026802)"><rect fill="url(#r)" height="59" rx="1" stroke="#500" width="8" x="62" y="16.5"/><rect fill="#e9c883" height="53.048882" rx=".995757" ry="1.080796" stroke="#500" stroke-width=".951119" width="8.048882" x="61.975559" y="18.975559"/><text font-family="URW Palladio L" font-style="italic" font-weight="500" letter-spacing="0" transform="rotate(-90)" word-spacing="0" x="-70.239777" y="67.686684"><tspan font-size="4.456247" x="-70.239777" y="67.686684">Made by CakeShop.pl</tspan></text></g><g transform="matrix(.984252 -.17677106 .17677106 .984252 -10.237964 14.141489)"><rect fill="url(#s)" height="50" rx=".995757" ry="1.080796" stroke="#04a" width="10" x="70.5" y="25.5"/><path d="m78.5 75v-49" fill="none" stroke="#1352b0"/><path d="m72.5 75v-49" fill="none" stroke="#1352b0"/><text fill="#025" font-family="Rekha" font-weight="500" letter-spacing="0" word-spacing="0" x="73" y="32"><tspan fill="#025" font-family="Rekha" font-size="7" font-weight="500" x="73" y="32">A</tspan></text><g fill="#162d50" transform="matrix(0 -1.0289668 .97184866 0 0 0)"><path d="m-65.429613 77.358801h.08886l.194638-.118476c-.16925-.01269-.558528-.02116-.952036-.02116l-.258107.131169v.03385c.211563-.01269.418896-.02116.617765-.02539l-.152325.609303c-.177713.16925-.43159.283495-.626228.283495-.313114 0-.507753-.245414-.507753-.630459 0-.825097.558529-1.595189 1.150906-1.595189.173482 0 .321576.07193.40197.19887.05501.08462.07616.156557.101551.33427l.313114-.351195c-.08039-.241183-.236952-.334271-.558528-.334271-.461208 0-.880104.190408-1.218605.554297-.342733.36812-.558528.888567-.558528 1.33285 0 .410432.224258.664309.588146.664309.262339 0 .486597-.0677.863179-.258107-.06347.253875-.139631.528908-.177713.621996-.08463.228489-.207332.321577-.431589.321577-.122707 0-.33004-.01693-.456978-.03808l-.177713.279264c.152326.01693.220026.02116.304652.02116.338501 0 .626228-.152326.905491-.478133.181945-.207332.258108-.385046.380815-.875873l.165019-.660078"/><path d="m-64.891647 78.416618.325808-.122706.317345-1.205912c.143863-.105782.241183-.148095.355427-.148095.09309 0 .148095.03385.224257.13117l.126938-.401971c-.08039-.02539-.114244-.03385-.156557-.03385-.07616 0-.165019.03808-.279263.118475l-.249645.181945c.0042-.03385.01269-.05501.01269-.0677.03385-.139632.03808-.16502.03808-.186176 0-.02539-.02539-.04654-.05501-.04654-.05501 0-.427358.181945-.685465.338501l-.01269.114245c.228488-.118476.253876-.126938.304651-.126938.05501 0 .08039.02962.08039.08886s-.04231.258108-.09309.440052l-.253877.926648"/><path d="m-62.391892 77.794622c-.317345.275032-.520446.393508-.681234.393508-.105782 0-.194639-.07193-.224258-.181945-.01693-.0677-.02116-.114244-.02116-.236951.190407-.118475.317345-.207332.56699-.393508.228488-.173482.317345-.313114.317345-.503521 0-.148094-.09309-.236951-.241182-.236951-.09309 0-.160788.02116-.258107.07616-.160789.09309-.304652.207332-.393509.308882-.160788.194639-.304651.660079-.304651 1.002811 0 .249645.13117.406202.346964.406202.249645 0 .558528-.177713.892798-.511983v-.122707m-.913954-.177714c.07193-.452745.26657-.803941.448514-.803941.07193 0 .118476.07193.118476.173482 0 .211563-.114245.338502-.56699.630459"/><path d="m-60.953921 77.794622c-.317345.275032-.520447.393508-.681235.393508-.105781 0-.194638-.07193-.224257-.181945-.01692-.0677-.02116-.114244-.02116-.236951.190407-.118475.317345-.207332.56699-.393508.228488-.173482.317345-.313114.317345-.503521 0-.148094-.09309-.236951-.241182-.236951-.09309 0-.160789.02116-.258108.07616-.160788.09309-.304651.207332-.393508.308882-.160788.194639-.304651.660079-.304651 1.002811 0 .249645.131169.406202.346964.406202.249644 0 .558528-.177713.892798-.511983v-.122707m-.913955-.177714c.07193-.452745.266571-.803941.448515-.803941.07193 0 .118476.07193.118476.173482 0 .211563-.114245.338502-.566991.630459"/><path d="m-60.429905 78.293912.249645-.994349c.528908-.33427.541603-.338501.60084-.338501.02962 0 .04654.02116.04654.05501 0 .06347-.03385.224258-.156557.706622-.09309.376583-.110013.448515-.110013.528909 0 .05924.01693.114244.06347.190407.194639-.08886.486597-.270801.782785-.490827l.02962-.118476c-.423126.241182-.440052.249645-.482365.249645-.04231 0-.0677-.04654-.0677-.114244 0-.08886.02962-.228489.110013-.520446.19887-.710853.19887-.710854.19887-.740473 0-.04654-.02962-.07193-.08463-.07193-.06347 0-.156557.03808-.308882.1354l-.579684.359658c.03808-.139631.10155-.406202.10155-.440052 0-.02962-.02539-.05501-.05501-.05501-.04654 0-.351196.156557-.66431.342733l-.025377.110012c.270801-.122707.287726-.126938.325807-.126938.02962 0 .05078.02539.05078.05924 0 .08886-.0804.440053-.186176.825098l-.09732.342733c-.0085.02962-.02962.110013-.05924.228488l.317345-.122706"/><path d="m-58.648804 77.642296s.372351-.0085.372351-.0085c.03808 0 .07193 0 .181945.0085.05924-.09732.122707-.186176.190407-.26657 0 0-.385046-.0042-.385046-.0042-.05924 0-.09732 0-.194638.0042-.05924.05924-.131169.152326-.203101.26657h.03808"/><path d="m-56.459981 77.075306.241182-.960498h.131169c.177713-.0085.308883-.01269.334271-.01269.165019 0 .194638.02962.308882.308883l.279264-.279264c-.01269-.09309-.04654-.139632-.118475-.16502l-.905492.01693.02539-.08886-.296188.08886c-.406202.0042-.66431.08463-.905492.275033-.211563.16925-.304652.338502-.304652.558527 0 .110013.01693.194639.07616.342733l.304652-.203101c-.03808-.1354-.05501-.245413-.05501-.351195 0-.330039.236952-.46544.812404-.482365l-.236951.952036c-.07193.07193-.09309.09732-.16502.181944h.118476c-.01693.06347-.02962.118476-.04654.169251-.160788.651615-.207333.723548-.554296.808173l-.160789.139632c.118476.0042.207333.0042.236951.0042l.380815.0042c.126938 0 .241182.0042.338501.0085.511983.01693.516215.01693.69816.01693.220026 0 .279264-.02539.469671-.19887.194638-.173482.26657-.275032.26657-.372352 0-.02116-.0042-.05501-.01693-.09732l-.321577.118476c.01269.08886.01693.122707.01693.160788 0 .160788-.05501.181945-.461208.181945h-1.10013c.410432-.376583.414664-.385046.56699-.96473.215794-.01269.241182-.01269.342733-.02116.09309-.0042.156557-.0085.181944-.0085.01693-.0042.06347-.0042.114245-.0085.07616-.05501.08462-.06347.160788-.122707h-.757397"/><path d="m-55.325406 79.394042c.131169.01693.317345.02962.46544.02962.296188 0 .465439-.08039.706622-.338502.245413-.262338.262338-.308883.410433-.99858.148094-.681233.228488-.99858.372351-1.46825-.05501.02962-.10155.05501-.118475.06347l-.148095.07193c-.02116.01269-.05501.02539-.09309.04654l-.258108 1.028199c-.423126.262338-.444283.275032-.516215.275032-.05501 0-.09309-.05924-.09309-.1354 0-.09309.03808-.287727.118476-.588147.105781-.418895.165019-.655847.165019-.693928 0-.02962-.02116-.05078-.04654-.05078-.04654 0-.317345.143863-.672772.355426l-.01269.114245c.198869-.101551.245413-.122707.291957-.122707.04231 0 .06347.02539.06347.06347 0 .07616-.02962.203101-.131169.575453-.10155.36812-.122707.461208-.122707.571221 0 .135401.06347.236951.148095.236951.08039 0 .418896-.203101.795478-.473902-.160788.774322-.160788.774323-.211563.930879-.0677.215795-.203101.296189-.478134.296189-.122706 0-.215795-.01693-.465439-.07616l-.169251.287727"/><path d="m-52.069907 77.794622c-.317345.275032-.520447.393508-.681235.393508-.105781 0-.194638-.07193-.224257-.181945-.01693-.0677-.02116-.114244-.02116-.236951.190407-.118475.317345-.207332.56699-.393508.228488-.173482.317345-.313114.317345-.503521 0-.148094-.09309-.236951-.241182-.236951-.09309 0-.160789.02116-.258108.07616-.160788.09309-.304651.207332-.393508.308882-.160788.194639-.304651.660079-.304651 1.002811 0 .249645.131169.406202.346964.406202.249645 0 .558528-.177713.892798-.511983v-.122707m-.913954-.177714c.07193-.452745.26657-.803941.448514-.803941.07193 0 .118476.07193.118476.173482 0 .211563-.114245.338502-.56699.630459"/><path d="m-50.136878 77.820009c-.05501.03385-.09732.06347-.118476.07616-.23272.160788-.351195.228489-.389277.228489-.03385 0-.05924-.04654-.05924-.110013 0-.139632.355427-1.671352.444284-1.933691.09309-.253875.186176-.351195.338501-.351195.05501 0 .09732.0085.194639.03385l.148094-.236951c-.06347-.01269-.09732-.01693-.1354-.01693-.101551 0-.156558.01693-.253877.07193-.105781.05924-.249645.169251-.36812.279263-.207332.19887-.220026.228489-.330039.66431-.0042.01693-.01693.07193-.03385.1354-.07616-.01693-.139632-.02539-.173482-.02539-.13117 0-.495059.228489-.66431.414664-.143863.16502-.33427.761629-.33427 1.053586 0 .160789.08463.325808.160788.325808.08039 0 .266571-.114244.710854-.435821-.02116.105782-.03385.228489-.03385.304652 0 .08463.03385.131169.09309.131169.0677 0 .435821-.224257.787017-.478133l.01693-.13117m-.829329.01693c-.359658.253876-.452746.308883-.511984.308883-.05924 0-.08886-.06347-.08886-.186176 0-.139631.02539-.30042.07616-.486596.122707-.427358.287727-.638921.503521-.638921.07616 0 .13117.02962.220026.114244l-.198869.888566"/><path d="m-49.065706 78.370074c.110013 0 .114245 0 .245414.0042h.143863.148095c.296188.0085.296189.0085.363889.0085.287726 0 .507753-.05501.791247-.198869.380814-.190407.566991-.435822.566991-.740473 0-.131169-.06347-.253876-.169251-.33427-.08886-.0677-.181945-.09309-.385046-.114244.418895-.190407.630459-.423127.630459-.693928 0-.279264-.228489-.401971-.748934-.401971h-.0677l.03385-.131169-.342732.148094c-.363889.05501-.566991.118476-.761629.23272-.338501.207332-.511984.503521-.511984.875873 0 .08463.0085.148094.02962.275032l.338502-.156557c-.03808-.186175-.04231-.23272-.04231-.313114 0-.287726.08886-.46544.304652-.605071.16925-.110013.338501-.160789.605071-.177714l-.313114 1.252456c-.177713.732009-.249645.825098-.660078.867411l-.19887.2031m1.210144-1.231299c.08462-.0085.122706-.0085.165019-.0085.325808 0 .516215.148095.516215.410434 0 .160788-.0677.346964-.173482.465439-.114244.131169-.283495.19887-.495059.19887-.105781 0-.228489-.01269-.626228-.05501.414665-.36812.482365-.469671.571222-.850485l.04231-.160788m.279263-1.121287c.207332.0042.253877.01269.313114.04231.101551.05078.16502.173482.16502.308883 0 .198869-.09732.401971-.245414.511983-.126938.09732-.253876.135401-.482365.139632l.249645-1.002811"/><path d="m-46.562446 77.104925c.177713-.08886.258107-.122707.308882-.122707.03385 0 .05924.03385.05924.08039 0 .05501-.04231.236951-.118475.524678-.105782.393507-.13117.511983-.13117.63469 0 .118475.05078.207332.118476.207332.06347 0 .139632-.03808.351195-.177713l.435821-.283495c-.03385.1354-.05924.287726-.05924.363889 0 .05501.03385.09732.07616.09732.08463 0 .486596-.236951.774322-.452746l.02962-.126938c-.330038.194638-.440052.253876-.486596.253876-.02962 0-.04654-.03385-.04654-.10155 0-.215795.156557-.846255.338502-1.383625-.05501.02962-.09309.05078-.110013.05924-.05078.02539-.101551.05078-.156557.07616-.01269.0042-.03808.01692-.08463.04231-.02539.09732-.110013.435821-.249644 1.019736-.325808.224257-.473903.308883-.524678.308883-.04654 0-.08039-.05924-.08039-.139632 0-.09732.03385-.26657.105782-.537371.04654-.169251.07616-.287727.08886-.346964.03808-.156557.0677-.266571.07616-.296189.01269-.04654.02116-.08463.02116-.114245 0-.03385-.02116-.05501-.05078-.05501-.04231 0-.351195.16502-.655846.355426l-.02962.114245"/><path d="m-43.42311 77.841166c-.321576.190407-.456977.262338-.516215.262338-.05501 0-.122706-.110013-.122706-.198869 0-.05924.07193-.385046.181944-.829329.05924-.0042.101551-.0042.122707-.0042l.169251-.0042c.01693 0 .05924-.0042.126938-.01269l.160788-.122707h-.541602l.16925-.685466c-.08039.04231-.114244.05501-.177713.08463-.02962.01693-.06347.02962-.09732.04654-.01693.0085-.03808.01693-.05924.02539l-.118476.528909c-.03808.0042-.06347.0042-.07616.0042h-.101551c-.0085 0-.02962 0-.06347.0042-.04654.02962-.05078.02962-.122707.08886-.01269.0085-.03385.02539-.06347.04654h.101551.194638.09309c-.224257.939341-.224257.939342-.224257 1.070511 0 .135401.08886.283495.169251.283495.09309 0 .380814-.177713.787016-.482365l.0085-.105781"/><path d="m-42.06778 77.841166c-.321576.190407-.456977.262338-.516215.262338-.05501 0-.122707-.110013-.122707-.198869 0-.05924.07193-.385046.181945-.829329.05924-.0042.10155-.0042.122706-.0042l.169251-.0042c.01693 0 .05924-.0042.126938-.01269l.160789-.122707h-.541603l.169251-.685466c-.08039.04231-.114244.05501-.177713.08463-.02962.01693-.06347.02962-.09732.04654-.01693.0085-.03808.01693-.05924.02539l-.118476.528909c-.03808.0042-.06347.0042-.07616.0042h-.10155c-.0085 0-.02962 0-.06347.0042-.04654.02962-.05078.02962-.122707.08886-.01269.0085-.03385.02539-.06347.04654h.10155.194639.09309c-.224258.939341-.224258.939342-.224258 1.070511 0 .135401.08886.283495.169251.283495.09309 0 .380815-.177713.787016-.482365l.0085-.105781"/><path d="m-40.640521 77.794622c-.317345.275032-.520446.393508-.681234.393508-.105782 0-.194639-.07193-.224258-.181945-.01693-.0677-.02116-.114244-.02116-.236951.190407-.118475.317345-.207332.56699-.393508.228488-.173482.317345-.313114.317345-.503521 0-.148094-.09309-.236951-.241182-.236951-.09309 0-.160788.02116-.258108.07616-.160788.09309-.304651.207332-.393508.308882-.160788.194639-.304651.660079-.304651 1.002811 0 .249645.13117.406202.346964.406202.249645 0 .558528-.177713.892798-.511983v-.122707m-.913954-.177714c.07193-.452745.26657-.803941.448514-.803941.07193 0 .118476.07193.118476.173482 0 .211563-.114245.338502-.56699.630459"/><path d="m-40.429618 78.416618.325808-.122706.317345-1.205912c.143863-.105782.241182-.148095.355427-.148095.09309 0 .148094.03385.224257.13117l.126938-.401971c-.08039-.02539-.114244-.03385-.156557-.03385-.07616 0-.16502.03808-.279264.118475l-.249645.181945c.0042-.03385.01269-.05501.01269-.0677.03385-.139632.03808-.16502.03808-.186176 0-.02539-.02539-.04654-.05501-.04654-.05501 0-.427359.181945-.685466.338501l-.012685.114241c.228489-.118476.253877-.126938.304652-.126938.05501 0 .08039.02962.08039.08886s-.04231.258108-.09309.440052l-.253876.926648"/><path d="m-38.056802 77.05415c.01269 0 .03808 0 .08462.0042l.173482-.135401c-.220025-.0042-.220026-.0042-.26657-.0042-.05078 0-.05078 0-.249644.0042.275032-1.074741.338501-1.205912.588146-1.205912.07193 0 .126938.0085.283495.03385l.194639-.228488c-.08463-.02116-.118476-.02539-.203101-.02539-.253876 0-.43159.09309-.715085.368121-.236951.228488-.291958.355427-.456977 1.057817-.04231-.0042-.06347-.0042-.08463-.0042l-.207332.0085c-.0085 0-.02962 0-.06347-.0042-.02539.01693-.05078.03385-.05924.03808l-.09309.05078c-.01693.0085-.05077.02539-.08462.04654h.105782s.296189.0042.296189.0042c.02539 0 .07193 0 .156557-.0042-.0677.258107-.09309.372352-.173482.740472-.253876 1.163598-.351196 1.354006-.710854 1.354006-.05924 0-.110013-.0042-.224257-.02116-.04231.06347-.05501.08463-.08462.122707-.03385.04654-.07193.09309-.105782.143863.09309.01269.139632.01693.207332.01693.139632 0 .249645-.02116.317345-.05924.122707-.0677.338502-.275032.452746-.423127.131169-.177713.283495-.541603.380814-.926648.181945-.689696.228489-.863179.249645-.947804.03808.0042.05501.0042.07193.0042l.220026-.0085"/><path d="m-36.883417 77.828472c-.05924.03385-.09732.05924-.114244.0677-.304651.190407-.338502.207332-.39774.207332-.03808 0-.07616-.05078-.07616-.110013v-.03808-.03808c0-.07616.190408-.89703.346965-1.493639.165019-.621996.203101-.698159.389276-.698159.05501 0 .09732.0042.207333.02962l.181944-.224258c-.08886-.02116-.1354-.02539-.190407-.02539-.169251 0-.304652.0677-.507752.249645-.186176.16925-.23272.23272-.287727.385045-.03385.101551-.126938.444284-.16925.630459l-.304652 1.324388c-.0042.02539-.0085.05077-.0085.07616 0 .126938.07193.258107.139631.258107h.02539.01269c.04231 0 .220026-.122707.753166-.507752v-.09309"/><path d="m-45.151035 79.575939c1.806221.0624 8.349004-.152277 8.497098-.152277.296189 0 .46544-.08039.706622-.338502.245414-.262338.262339-.308883.410434-.99858.148094-.681233.228488-.99858.372351-1.46825-.05501.02962-.10155.05501-.118475.06347l-.148095.07193c-.02116.01269-.05501.02539-.09309.04654l-.258107 1.028199c-.423127.262338-.444283.275032-.516215.275032-.05501 0-.09309-.05924-.09309-.1354 0-.09309.03808-.287727.118476-.588147.105781-.418895.165019-.655847.165019-.693928 0-.02962-.02116-.05078-.04654-.05078-.04654 0-.317345.143863-.672772.355426l-.01269.114245c.198869-.101551.245413-.122707.291957-.122707.04231 0 .06347.02539.06347.06347 0 .07616-.02962.203101-.131169.575453-.101551.36812-.122707.461208-.122707.571221 0 .135401.06347.236951.148094.236951.08039 0 .418897-.203101.795479-.473902-.160788.774322-.160788.774323-.211563.930879-.0677.215795-.203102.296189-.478134.296189-.122707 0-5.112101-.380725-14.939606-.485429 0 0 1.419902.515098 2.235953 1.06079"/></g><path d="m74 33h3" fill="none" stroke="#025"/></g><g><path d="m12 6c-3.324 0-6 2.676-6 6v72c0 3.324 2.676 6 6 6h72c3.324 0 6-2.676 6-6v-72c0-3.324-2.676-6-6-6zm4 6h64c2.216 0 4 1.784 4 4v64c0 2.216-1.784 4-4 4h-64c-2.216 0-4-1.784-4-4v-64c0-2.216 1.784-4 4-4z" fill="url(#f)"/><path d="m84 89.998769c-3.685428-.154348-7.3767-.26872-11.0625-.4375-3.160516-.183929-6.310236-.344802-9.46875-.5625 1.070301.004 2.117202-.005 3.1875 0 1.954324.0625 3.950764.12025 5.90625.125 1.850173.0113 3.681634.0032 5.53125-.03125-1.50746-.0358-2.954271-.0449-5.34375-.0625-2.019999-.0149-4.073724-.02195-6.09375-.03125-.324334-.0104-.613226-.01935-.9375-.03125 2.331709.01 4.637072.01405 6.96875.03125 1.804735.0133 3.632736.03985 5.4375.03125-2.299261-.03773-4.606065-.08602-6.90625-.09375h4.71875 5.875c.309397 0 .596831.002.90625 0 .187845-.008.405927-.02235.59375-.03125-.505706-.004-1.025587-.03125-1.53125-.03125-1.959263-.00001-3.915737 0-5.875 0h-2.3125c4.216364-.0306 8.442492-.112972 12.65625-.28125.475108-.021.930272-.0369 1.40625-.0625-.03621.0302-.05688.06435-.09375.09375-.106417.03-.208859.0566-.3125.0625-.619553.036-1.255243.06175-1.875.09375-.739272.0371-1.188877.06526-1.75.09375 1.253286-.0772 2.526876-.12263 3.78125-.15625-.05835.0438-.127643.11441-.1875.15625-.09047.004-.190464-.0023-.28125 0-.852526.0216-1.678405.03665-2.53125.03125.86039-.005 1.702407.01005 2.5625.03125.04498.00071.07981-.002.125 0-.146345.0981-.283012.195001-.4375.28125-2.246756-.0842-4.502624-.141461-6.75-.1875-.538264.0152-1.055386.052-1.59375.0625 1.243321.0325 2.521927.06089 4.40625.1875 1.075843.0723 2.145343.181351 3.21875.28125-.512533.207081-1.056741.36671-1.625.4375-.03112.0039-.06249-.0034-.09375 0-.06162.0022-.125406-.000312-.1875 0-.01035.00005-.02089 0-.03125 0zm-18.28125-1.03125c-.920632-.004-1.860616.0032-2.78125 0-3.784036-.266027-7.574539-.607214-11.34375-1.0625-.387161-.0452-4.682551-.551142-6.6875-.78125.113236-.00071.230513.00071.34375 0 2.176655.250927 5.972634.70662 6.34375.75 4.696408.563365 9.402242.918432 14.125 1.09375zm-20.46875-1.84375c-.521143-.0601-1.356354-.16853-1.53125-.1875 4.990151.0464 9.978103.09405 14.96875.09375 7.24478.016 14.507887.03401 21.75-.1875 2.934058-.0372 5.848955-.113941 8.78125-.21875-.155408.286938-.33608.585052-.53125.84375-2.630562-.0816-5.274691-.15475-7.90625-.1875-7.35699-.214158-14.702993-.23898-22.0625-.21875-4.492859.00028-8.976353.0231-13.46875.0625zm-.34375 0c-2.94463.0267-5.899181.07201-8.84375.125-5.789259.0507-11.585595.120228-17.375.0625-3.215207-.058-6.410433-.200761-9.625-.28125-.68707-.0172-1.37543-.01815-2.0625-.03125-.0088-.014-.02264-.0485-.03125-.0625.672413.006 1.327245.03295 2 .03125 3.110726-.008 6.233123-.08685 9.34375-.125 5.810262-.0415 11.627363-.01225 17.4375.03125 2.502558.0412 4.997427.0384 7.5.0625.06037.006.15839.02535.21875.03125.08286.008 1.004265.10653 1.4375.15625zm18.03125 1.84375c.173597.0122.357636.01935.53125.03125-3.512456-.0128-7.05004-.02265-10.5625-.03125.467956-.002.938289-.02955 1.40625-.03125-8.710073-.00001-17.414927 0-26.125 0 .527879-.0183 1.03453-.0482 1.5625-.0625h.3125c7.603586.001 15.240174.01705 22.84375.03125 3.350453.008 6.680801.0508 10.03125.0625zm-32.875-.09375c4.095205-.105259 8.215495-.121359 12.3125-.09375 3.941755.0545 7.870508.08347 11.8125.09375zm-1.875.0625c7.777076.00071 15.535431.01805 23.3125.03125-2.973544.0197-5.933102.03156-8.90625.09375-6.348975.109309-12.71224.21889-19.0625.1875-2.322763.03013-4.652882.05381-6.96875.09375 2.290493-.03987 4.581277-.110086 6.875-.1875 1.574923-.097 3.174073-.16411 4.75-.21875zm-11.625.40625c-1.919537.0331-3.82458.08477-5.75.09375-.341617.001-.689506.00049-1.03125 0-.0299-.0138-.06407-.01705-.09375-.03125 2.294303-.0131 4.584507-.02263 6.875-.0625zm-7.5625-.3125c-.04492-.0287-.08087-.06405-.125-.09375 3.328621.004 6.640079-.00057 9.96875 0-3.288422-.009-6.556802.04265-9.84375.09375zm-.1875-.15625c-.03844-.0266-.08718-.0351-.125-.0625 1.691824.02475 3.372535.04526 5.0625.0625-1.646232-.00055-3.291696-.002-4.9375 0zm21.125-2.71875c-1.401109-.03129-2.816107-.04932-4.21875-.0625-3.256947-.0744-6.523132-.206881-9.78125-.3125 3.239232.108169 6.476821.20716 9.71875.28125 1.428058.01343 2.84784.0536 4.28125.09375zm-14-.375c-1.773596-.0575-3.540478-.08258-5.3125-.15625-3.380111-.140549-3.835151-.18727-4.34375-.21875 3.224575.156339 6.431774.267301 9.65625.375zm73.6875-.0625c-4.999469-.508176-10.042936-.661481-15.0625-.8125-1.891498-.0494-3.795674-.09956-5.6875-.125 1.886409.0291 3.770486.0193 5.65625.0625 5.055719.152059 10.136398.357052 15.1875.625-.02598.083-.0646.1685-.09375.25zm-20.90625-.9375c-5.734807-.0752-11.483706-.06205-17.21875-.03125-7.148085.0578-14.289487-.0085-21.4375-.03125-3.001943-.02136-6.000755-.05486-9-.0625 2.964478-.0072 5.940542-.0075 8.90625-.03125 7.136581-.0293 14.269538-.09145 21.40625-.03125 5.777215.0432 11.565624.09934 17.34375.1875zm-62.59375-.0625c-.0064-.0362.0064-.05736 0-.09375 2.984004.02736 5.954755.05682 8.9375.0625-2.978371.0048-5.956455.0029-8.9375.03125zm-.0625-.34375c-.0021-.0147.0021-.0478 0-.0625 3.7435041-.146582 7.497517-.243777 11.25-.3125h4.375c-5.209863.06761-10.421044.170983-15.625.375zm83.9375-.84375c-1.86659-.0557-3.726003-.09404-5.59375-.09375-.79134-.0049-1.583478.0032-2.375 0 .07138-.04194.150323-.07885.21875-.125.01041-.000085.02084.000085.03125 0 .66663-.0054 1.333439-.02522 2-.03125 1.110713-.0127 2.232603-.0433 3.34375-.0625.7912.0251 1.584155.08941 2.375.125zm-2.375-.3125c-1.713442-.05442-3.412145-.07614-5.125-.09375.03484-.02777.05988-.06486.09375-.09375 2.458438-.03321 4.918417-.06856 7.375-.21875.0075.00054.02379-.00054.03125 0v.34375c-.790316.0234-1.58443.0489-2.375.0625zm-81.625-.03125v-.03125c.05339.00013.102867-.00043.15625 0 1.346833.0339 2.692354-.0348 4.03125-.15625 1.053077.0031 2.10406-.0019 3.15625 0 .06802.0601.146697.100849.21875.15625-2.496945.0022-5.0050944.02026-7.5.03125-.02264.00025-.03993-.00025-.0625 0zm4.1875-.1875c-1.395475-.004-2.792018.006-4.1875 0v-.4375c2.2883771-.01707 4.583868-.02817 6.875-.0625.05662.07105.095.151791.15625.21875-.946652.0874-1.896529.195331-2.84375.28125zm78.15625-.3125c-1.124855-.0548-2.92083-.08786-4.71875-.125 1.0909.0238 2.159013.0451 3.25.0625.490001.0244.979198.0311 1.46875.0625zm-1.46875-.0625c-1.244339-.06202-2.503791-.09265-3.75-.125.08873-.111349.173394-.223101.25-.34375.354225.000379.708548.0019 1.0625 0 .415271.0131.834954.01035 1.25.03125.762633.0385 1.519486.1024 2.28125.15625.677258.0427 1.355084.09914 2.03125.15625v.125c-.571696.001-1.14709.006-1.71875 0-.469783-.005-.936503.0075-1.40625 0zm-2.4375-.46875c-.354801-.01118-.707464-.02408-1.0625-.03125.129204-.206566.253511-.426406.34375-.65625.458539.01047.916114.01194 1.375.03125.757746.0318 1.555464.07865 2.3125.125.71001.039 1.416068.10271 2.125.15625-.736412-.1068-1.459576-.184541-2.09375-.25-1.210682-.124973-2.436511-.181008-3.65625-.25.0064-.01906-.0061-.04331 0-.0625 1.208703.0833 2.422676.178812 3.625.25 1.454359.0861 1.972857.09871 2.59375.125v.5625c-1.854924-.004-3.707561-.01-5.5625 0zm-71.65625.1875c-2.261231-.02701-4.5228104-.0465-6.78125-.0625 2.2231891.0023 4.461977-.0084 6.6875-.03125.02497.03703.06758.05762.09375.09375zm-6.78125-.125v-.15625c1.002433.008 1.997602.02035 3 .03125-1.002853.047-1.996997.07966-3 .125zm3-.125c1.166939-.05467 2.333433-.103375 3.5-.15625.03564.06472.08594.125049.125.1875-1.209153-.01587-2.42035-.01817-3.625-.03125zm-3-.1875v-.03125c1.606863.02395 3.207835.01424 4.8125 0-1.606857.0079-3.205028.04125-4.8125.03125zm4.8125-.03125c.552297-.0049 1.10444-.02551 1.65625-.03125.0042.008-.0042.02326 0 .03125-.551617-.0021-1.103255-.0027-1.65625 0zm79.1875-1.84375c-1.997143-.173953-3.995691-.319324-6-.4375v-.03125c1.007427.05851 2.025217.114915 3.03125.1875 1.301606.0939 2.072813.172801 2.96875.25zm0-.625c-.684118-.0756-1.346098-.15364-2.03125-.21875.683702.0617 1.347042.12004 2.03125.1875zm-84-.3125v-.21875c1.9955576-.03484 3.9999679-.08971 6-.15625v.03125c-2.0010769.103283-4.0058098.224674-6 .34375zm79.875-.09375c-.628575-.04831-1.252639-.05972-1.875-.09375v-.03125c.625385.04245 1.251953.07622 1.875.125zm4.125-.03125c-1.999654-.04755-4.000132-.07921-6-.125v-.25c2.005669.03279 3.996964.03323 6 .03125zm-78-.75c-1.243533-.01754-2.8678656-.037-6-.09375v-.03125c1.6963846.03973 3.8834141.07453 6 .09375zm78-.09375c-.708331-.0271-1.41604-.0461-2.125-.0625.706796.0179 1.41811.01935 2.125.03125zm-2.5-.0625c-1.033499-.0216-2.059628-.0575-3.09375-.0625.407551.003.823008-.004 1.21875 0 .616751.007 1.258379.0474 1.875.0625zm-81.5-.375v-.03125c1.708831-.053 3.408958-.09404 5.6875-.15625.104131-.0023.208369.0023.3125 0v.03125c-.09372.002-.187528-.002-.28125 0-1.908117.0521-3.811017.095251-5.71875.15625zm6-.46875c-2.0005823-.03025-4.0015007-.06644-6-.09375v-.03125c2.001601.02736 4.000649.05758 6 .09375zm-6-.1875v-.5625c1.9964667.02032 3.9991353.03913 6 .0625v.46875c-1.890026.0025-3.7683171.01661-5.65625.03125-.120768-.00003-.222982-.00017-.34375 0zm78-.3125v-.34375c1.187138-.02853 2.375137-.04077 3.5625-.09375.985207-.0501 1.695628-.11785 2.4375-.15625v.28125c-.724834.0498-1.462506.10835-2.1875.15625-1.270601.07479-2.541824.107453-3.8125.15625zm-72-.28125c-.291622-.0133-.58431-.01764-.875-.03125-1.699505-.0805-3.424598-.139291-5.125-.1875v-.4375c1.605916.0719 3.207836.148051 4.8125.25.397011.02405.790607.03794 1.1875.0625zm72-.75v-.09375c1.999434-.215961 3.999564-.434746 6-.65625v.1875c-.941202.0753-1.872471.129451-2.8125.21875-1.064482.101123-2.124981.227741-3.1875.34375zm-78-.28125v-.4375c.181184.002.350081-.002.53125 0 1.8219226.01656 3.645734.02224 5.46875.03125v.375c-1.687496.0089-3.3747826.01693-5.0625.03125-.309625.004-.62786-.003-.9375 0zm78.59375-.6875c-.06574.00057-.307146-.0526-.40625-.0625-.06337-.0064-.124572-.0234-.1875-.03125v-.21875c.09455-.0015.189508-.0045.28125 0 .107417.0831.20895.192881.3125.28125.0064.006-.0029.02745 0 .03125zm-.3125-.3125c-.089508-.06926-.186238-.127295-.28125-.1875v-.25c.207643.08324.419548.123442.625.0625.123493-.0366.09568-.191921.03125-.3125.10507-.003.207429.002.3125 0 .209207.193928.436927.416332.65625.59375-.06068.0563-.106884.14318-.1875.15625-.243878.0395-.472048-.02185-.71875-.03125-.14103-.006-.296534-.02425-.4375-.03125zm.6875-.6875c-.01573-.0146-.01552-.01665-.03125-.03125.02362-.00055.07049.00053.09375 0 1.547149-.0352 3.077712-.0342 4.625-.0625.113028-.002.230722.002.34375 0v.09375c-1.671981-.0395-3.356902-.0363-5.03125 0zm-.03125-.03125c-.06936.000901-.200452.02669-.28125.03125-.01031.000257-.02093-.000246-.03125 0-.09705-.165849-.238372-.347721-.375-.53125.01293-.008.05271-.02245.0625-.03125.216977.174358.418458.339852.625.53125zm-.625-.53125c-.04242-.0341-.113005-.06105-.15625-.09375.02236.0365.0642.08531.09375.125-.05308.03417-.165157.04008-.25.0625v-.3125c.051.03366.108708.05823.15625.09375-.007-.0123-.0254-.0508-.03125-.0625.0621.0509.247175.13361.1875.1875zm.3125.5625c-.206706.0049-.415718.02477-.625.03125v-.03125c.220664.0025.451698.0046.625 0zm-78.625.6875v-.0625c2.0008494.000202 4.000117-.0065 6 0v.0625c-2.0000895.000025-4.0007521.000199-6 0zm0-.78125v-.5c.845467-.142659 1.686601-.289871 2.53125-.4375.881879.006 1.774449.0076 2.65625.03125-1.727994.305117-3.459656.600212-5.1875.90625zm5.1875-.90625c.270076-.04769.542113-.08127.8125-.125v.15625c-.270885-.0099-.541697-.02402-.8125-.03125zm-2.65625-.03125c-.844214-.006-1.686986-.03575-2.53125-.03125v-.5c1.560592.0626 3.125847.115091 4.6875.15625-.716954.129997-1.438555.249561-2.15625.375zm2.15625-.375c.436648-.07917.874189-.166858 1.3125-.25v.28125c-.437812-.0061-.875928-.01977-1.3125-.03125zm79.3125-.15625c-2.000191-.02728-3.999999-.06542-6-.09375v-.625c1.998089-.02489 3.994812-.06208 6-.09375zm-84-.28125v-.25c1.529804.0323 3.064516.06855 4.59375.09375.471265.0017.938697.0007 1.40625 0v.0625c-.447394-.000806-.894779-.0019-1.34375 0-2.388162.0441-3.450693.05955-4.65625.09375zm84-1.5c-.157229-.0244-.311745-.037-.46875-.0625-1.843387-.255421-3.681456-.480805-5.53125-.65625 2.011522.135126 4.007504.328116 6 .625zm0-.75c-2.000059-.07037-4.000126-.107522-6-.15625v-.53125c.229136.02233.458353.03771.6875.0625 1.398218.151249 2.789448.347161 4.1875.5.374567.037.750258.05735 1.125.09375zm-84-.25v-.0625c.56705-.0445.939472-.0945 1.71875-.15625 1.4288581-.116223 2.849902-.193706 4.28125-.28125v.15625c-1.410758.05119-2.8094996.105964-4.21875.1875-.597268.0406-1.18433.11351-1.78125.15625zm84-1.3125c-.798043-.02-1.608171-.041-2.40625-.0625-1.200206-.03668-2.396336-.0848-3.59375-.125v-.5625c1.031779.01517 2.064233.05304 3.09375.0625.965743.009 1.940558.0004 2.90625 0zm-78-.8125c-2.0000327-.005-4.0001359-.02586-6-.03125.08977-.0115.191463-.01995.28125-.03125 1.9060816.005 3.81248.0018 5.71875 0zm-5.71875-.0625c-.09049-.00024-.190765.00024-.28125 0v-.59375c1.98855-.258922 3.9977672-.444096 6-.53125v.53125c-1.905393.14932-3.815672.352837-5.71875.59375zm.96875-1.875c-.41595.00072-.83425-.02455-1.25-.03125v-1.34375c.03773.00028.08728-.00032.125 0 1.3334.006 2.666578.02495 4 .03125.624848.02241 1.24993.04901 1.875.0625v1.21875c-.261752.0089-.519378.02097-.78125.03125-1.32169.009-2.647046.02635-3.96875.03125zm82.75-.4375c-2.002812-.0065-4.00135-.02148-6-.03125v-.46875c2.000684-.01749 4.001655-.02501 6-.03125zm0-.96875c-1.993849-.208547-3.998305-.390936-6-.5625v-.03125c1.333638.104005 2.754004.223416 4.625.40625.473403.0463.913154.07715 1.375.125zm-6-.78125v-.71875c1.552986.01029 3.108502.02346 4.65625.03125.452868.0541.891535.09765 1.34375.15625v.53125c-.135216-.001-.271049.001-.40625 0-1.86911-.0083-3.730352-.0033-5.59375 0zm4.65625-.6875c-.30222-.0361-.634982-.05966-.9375-.09375-1.24219-.114959-2.475566-.275472-3.71875-.375 1.040773.08043 2.070173.156133 3.65625.28125.740127.0683 1.47855.119551 2.21875.1875-.279505-.00071-.564267.00071-.84375 0-.135592-.00069-.239407.00069-.375 0zm-82.21875-.25c1.70609-.0929 3.417785-.18323 5.125-.15625.145765-.0017.29172.0017.4375 0v.09375c-1.849557.02605-3.7182203.11957-5.5625.0625zm5.03125-.25c-1.824722-.0626-3.641401-.10761-5.46875-.15625v-.6875c1.9923313.180196 3.9968713.268227 6 .34375v.5c-.176651-.0014-.354793.0015-.53125 0zm-5.46875-1.21875v-.15625c1.9951017.03009 4.000253.07922 6 .09375v.03125c-2.0010788-.0035-3.9978232-.01304-6 .03125zm78-.03125v-.03125c1.239644.0032 2.478047-.0021 3.71875 0 .753545-.002 1.527647.00021 2.28125 0v.03125c-.746652.002-1.503341-.006-2.25 0-1.250883.0021-2.499956-.0032-3.75 0zm6-.9375c-2.001.0035-4.000476-.02421-6-.03125v-.25c1.999996.000771 3.999982-.004 6 0zm-84-.09375v-.09375c2.0012366.01973 4.000658.02042 6 .03125v.03125c-1.999769.0027-3.999577.01144-6 .03125zm6-.84375c-1.707454-.08615-3.417243-.185254-5.125-.3125.166412.00056.333588.00003.5 0 1.5405574.111144 3.083986.202584 4.625.28125zm-4.625-.3125c-.204006-.0147-.389766-.01595-.59375-.03125-.254898-.0246-.526189-.0397-.78125-.0625v-.375c1.9988765.03802 4.000477.0605 6 .09375v.3125c-1.541686.02691-3.0830022.06232-4.625.0625zm76.625.125c-.000027 0 .000027-.03125 0-.03125 1.999935.0099 3.999565.01718 6 .03125-1.999238-.014-3.999903.0033-6 0zm-77.21875-.125c-.255218-.00071-.526047-.02875-.78125-.03125v-.03125c.256207.0249.525135.0379.78125.0625zm83.21875-.125c-1.999719-.02022-3.99996-.02224-6-.03125v-.03125c1.99981.009 3.998452.01095 6 .03125zm-78.375-1.40625c-1.8790573-.059042-3.762357-.195159-5.625-.375v-.3125c1.9913501.223968 3.9958486.363622 6 .46875v.21875c-.125218-.0033-.249764.0039-.375 0zm-5.625-1.03125v-.03125c.294392-.004.580608.003.875 0-.293951.0142-.58105.01645-.875.03125zm.875-.03125c.429318-.0208.883189-.0438 1.3125-.0625 1.2717599-.01299 2.541595-.02309 3.8125-.03125v.0625c-1.70835.01474-3.4173844.01289-5.125.03125zm1.3125-.0625c-.724187.007-1.463313.02335-2.1875.03125v-.3125c1.253109-.0503 2.496214-.11441 3.75-.125 1.098916-.0093 1.61663.01619 2.25.03125v.28125c-.658671.01222-1.309724.0096-1.96875.03125-.617962.0203-1.225752.0357-1.84375.0625zm81.8125-.0625c-1.995605-.02284-3.998148-.01602-6-.03125v-.15625c2.000096-.0149 4.00032-.03855 6-.0625zm0-.25c-1.048576-.12137-2.074469-.24148-3.125-.34375 1.048257-.0605 2.077018-.12137 3.125-.1875zm-3.125-.34375c-.953801.05506-1.915295.1068-2.875.15625v-.03125c.771096-.05142 1.542498-.09179 2.3125-.15625.180981.0172.381549.01365.5625.03125zm-.5625-.03125c-.408376-.0389-.810293-.11891-1.21875-.15625-.496805-.040053-.712231-.06302-1.09375-.09375v-.375c.240002.0073.478472.02362.71875.03125 1.756117.10346 3.522758.11579 5.28125.125v.0625c-1.228223.14371-2.455373.30311-3.6875.40625zm-74.3125-.90625c-1.999395-.01581-3.9988507-.01044-6-.03125v-.0625c2.0023263.02081 4.001122.04662 6 .0625zm-6-.5v-.03125c1.901069.0171 3.67008.0239 5.53125 0 .146594.0094.316137.02176.46875.03125-.79545.01264-1.514477-.0029-2.9375 0-1.01672.001-2.04568.009-3.0625 0zm5.53125-.03125c-1.572295-.10098-3.112877-.1844-4.6875-.25-.27767-.0127-.566052-.02175-.84375-.03125v-.59375c.105591.002.206909-.002.3125 0 1.8940849.07584 3.795412.197251 5.6875.34375v.53125c-.151646.0026-.313215-.002-.46875 0zm78.46875-.96875c-1.595304-.0876-3.214264-.14572-4.8125-.1875 1.598091.0339 3.214386.0439 4.8125.0625zm-84-.5v-.0625c1.714073.0157 3.435136.0064 5.15625 0-1.718707.01132-3.437261.0479-5.15625.0625zm78-.0625c2.000454-.01042 4.006672-.03556 6-.0625v.0625c-1.998975.01146-4.000411.0034-6 0zm0-.1875v-.28125c.843371.01361 1.686462.04204 2.53125.0625 1.155398.0263 2.312077.02025 3.46875.03125v.15625c-1.785878-.005-3.588679-.0059-5.375.03125-.208547.002-.416525-.0023-.625 0zm0-.4375v-.46875c.447714.0092.895264.02337 1.34375.03125 1.590227.028 3.116089.05115 4.65625.09375v.25c-1.899943.038-3.786768.07655-5.6875.09375-.103243.0026-.208821-.004-.3125 0zm6-.375c-1.505903-.0324-3.001935-.06415-4.6875-.09375-.441455-.0078-.876457-.025-1.3125-.03125.645789.0016 1.291441.0065 1.9375 0 1.355807-.0298 2.703072-.02465 4.0625-.03125zm-78-.1875c-1.448251-.122756-2.8991397-.255064-4.34375-.40625 1.4472962.151791 2.895646.284143 4.34375.40625zm-4.34375-.40625c-.05138-.005-.104875.005-.15625 0-.504214-.0492-.996189-.0991-1.5-.15625v-.09375c1.077421.003 2.172572-.003 3.25 0-.779192.12698-1.176611.1865-1.59375.25zm-.15625 0c-.382157.0575-1.01144.18141-1.5.25v-.375c.505317.0574.994341.0716 1.5.125zm82.5.1875c-.395582-.0828-.790435-.14385-1.1875-.21875-2.017602-.380599-3.46074-.618341-4.8125-.8125v-.03125c.02066.0027.04182-.0028.0625 0 1.530379.2047 3.060787.44198 4.59375.625.444171.053.898486.1132 1.34375.15625zm-80.71875-.4375c.06983-.0115.121994-.02005.1875-.03125.844593.002 1.687403-.0033 2.53125 0v.03125c-.906034-.0035-1.814643.0023-2.71875 0zm.1875-.03125c-1.154281-.003-2.314462.004-3.46875 0v-.375c.600087-.13596 1.12128-.23897 2.34375-.625.412084-.13012.809649-.29775 1.21875-.4375.08333-.0285.167623-.06185.25-.09375.730453.02512 1.458754.04162 2.1875.0625v1.15625c-.156475.0061-.312711.01911-.46875.03125-.785215.061-1.302934.15184-2.0625.28125zm.34375-1.53125c-1.100122-.0378-2.212734-.07451-3.3125-.125-.165936-.01-.334079-.02135-.5-.03125v-.4375c.04506.003.07994-.003.125 0 1.9500375.116829 3.914917.1931 5.875.25v.21875c-.198394-.0085-.395064-.02407-.59375-.03125-.06834-.002-.945911-.04915-1.03125-.03125-.192936.0405-.3777.11557-.5625.1875zm80.1875.9375c-1.427502-.0421-2.854725-.0905-4.28125-.15625-.574488-.02241-1.146559-.04236-1.71875-.0625v-.625c.37537.0021.749005-.0014 1.125 0 1.616861-.007 3.258154-.0478 4.875-.0625zm-6-2.96875v-.65625c2.002697.01596 4.006275.0062 6 0v.65625c-1.995723-.0067-4.003558-.0098-6 0zm-78-.5v-.15625c.95839.0256 1.916503.06975 2.875.09375-.954948.0115-1.920186.0456-2.875.0625zm6-.5625c-.479042-.0097-.959125-.01926-1.4375-.03125-1.514847-.0217-3.047368-.0444-4.5625-.0625v-.03125c1.479333-.00093 2.958936-.02335 4.4375-.03125.52073.004 1.041334.0027 1.5625 0zm78-.0625c-2.001284-.108425-4.000685-.186181-6-.25v-.03125c1.999599.06407 3.999243.142815 6 .25zm-84-.5v-.09375c2.0000696.01885 4.000018.02734 6 .03125v.0625c-1.999204.0036-3.9981386-.0196-6 0zm78-.3125v-.1875c.88612.0038 1.773023-.0047 2.65625 0 1.284227.01 2.283654-.008 3.34375 0v.15625c-1.996795.0027-4.005591.0057-6 .03125zm6-.1875c-1.129989-.0126-2.27624-.02295-3.40625-.03125-.863958-.0048-1.728927.0045-2.59375 0v-.09375c2.001874-.03306 4.004276-.06538 6-.09375zm-84 .15625v-.46875c1.9941434.0095 3.998115.02524 6 .03125v.4375c-1.997809-.0034-3.9939801-.01061-6 0zm6-1.1875c-.376116-.0088-.747871-.02992-1.125-.03125-1.620566-.0247-3.253651-.01565-4.875-.03125v-.0625c1.58251-.0144 3.168074-.0071 4.75-.03125.415567-.02229.833727-.01525 1.25-.03125zm-.625-.34375c-1.797348-.005-3.579102-.01445-5.375-.03125v-.53125c.0075-.00019.0237.0002.03125 0 1.9879459-.0018 3.979894-.0014 5.96875 0v.5625c-.208145-.000487-.417221.000636-.625 0zm.625-.5625c-.800248-.008-1.585539-.02744-2.375-.0625.791608.0076 1.583344-.0035 2.375 0zm-2.375-.0625c-1.208226-.0117-2.416831-.01455-3.625-.03125v-.1875c.855248.0753 1.736409.13958 2.59375.1875.467681.0261.682679.01595 1.03125.03125zm78.5625.4375c-1.396801-.00855-2.791709-.018713-4.1875-.03125v-.28125c1.994648-.0077 4.002446-.0062 6 .03125v.28125c-.603369-.004-1.20916.009-1.8125 0zm-4.1875-.5v-.15625c1.20841-.01148 2.414909-.02375 3.625-.03125.790208-.012 1.584749-.02725 2.375-.03125v.21875c-2.000586-.01673-3.993879-.02615-6 0zm-78-.71875v-.375c2.0002424.02385 4.000036.02641 6 .0625v.25c-1.995547.03364-4.0056686.04005-6 .0625zm4.96875-.46875c-1.652501-.013-3.316199-.0458-4.96875-.0625 1.64504.0106 3.295037-.0133 4.9375 0 .35431.0022.708367-.0019 1.0625 0v.0625c-.343817-.0019-.687361.0021-1.03125 0zm77.125-.4375c-1.370733-.03382-2.729092-.039103-4.09375-.0625v-.0625c1.364628.03959 2.731174.09134 4.09375.125zm-4.09375-.78125v-.59375c1.911394-.280057 3.824628-.590315 5.71875-.96875.09797.002.183283-.002.28125 0v.8125c-1.996827.247356-4.000109.504577-6 .75zm5.71875-1.5625c-1.901272-.03334-3.810834-.04587-5.71875-.0625v-.0625c2.000051-.01409 3.999871-.02126 6-.0625v.125c-.09905.02-.182161.0427-.28125.0625zm-77.71875-.25c-2.0015024-.09711-4.006152-.21336-6-.375v-.4375c1.993407.210536 3.9971016.329117 6 .4375zm72-.8125v-.03125c2.000155-.170973 3.9997-.345021 6-.53125v.03125c-2.585064.250056-3.989784.363709-6 .53125zm-72-.21875c-2.0004796-.08162-4.0007598-.168966-6-.25v-.15625c1.9955182.133385 3.9984306.255581 6 .34375zm72.75-1.25c-.251603-.0048-.498093-.02263-.75-.03125v-1.4375c1.577782-.0501 3.14902-.160966 4.71875-.34375-1.480628-.16288-2.955727-.3245-4.4375-.4375 1.478086.1074 2.9608.24383 4.4375.40625.03536.004.05815.02735.09375.03125.388521.0512.798486.1085 1.1875.15625v.125c-.802112.0111-1.573673.028-2.90625.0625-.177047.005-.354287.02595-.53125.03125 1.145867-.0283 2.291668-.0472 3.4375-.0625v.65625c-.05217.0117-.104099.01955-.15625.03125-1.100024.21695-2.20438.42824-3.3125.59375-.431107.0644-.878532.14851-1.3125.1875-.161943.0146-.306191.03065-.46875.03125zm4.0625-1.8125c.03813-.005.08687-.02685.125-.03125.353648-.0584.708331-.13287 1.0625-.1875v.34375c-.388015-.0428-.820667-.0839-1.1875-.125zm-76.8125 1.0625c-1.99942-.119213-3.9966835-.21321-6-.28125v-.03125c2.0014435.0683 3.9996786.162125 6 .28125zm-6-.4375v-.1875c2.0015869.005 4.000351-.0058 6 0v.1875c-2.0004301-.0012-4.002114-.0072-6 0zm0-.1875v-.3125c1.9984757.013 3.9997424.04672 6 .0625v.1875c-1.999819.01704-3.9983113.05125-6 .0625zm0-1.1875v-.0625c2.001203.0134 4.000157.002 6 0v.0625c-1.998746-.0019-3.9969325-.0154-6 0zm0-.25v-.53125c1.309866-.11391 2.625861-.23617 3.9375-.3125.143754-.008.293732.008.4375 0 .103977.00013.208525-.00009.3125 0 .436487-.02322.875382-.04365 1.3125-.0625v.65625c-2.0007391.06405-4.002851.15042-6 .25zm3.9375-.84375c-1.311973-.002-2.62552.003-3.9375 0v-.03125c1.309739.003 2.628669.02695 3.9375.03125zm74.0625.8125v-.0625c1.998888-.196286 3.99347-.399229 6-.59375v.09375c-3.006563.290957-3.82825.370857-6 .5625zm6-.96875c-.391787-.067-.795192-.15499-1.1875-.21875-1.172003-.18424-2.325268-.36649-3.5-.53125.710199.009 1.414779.02425 2.125.03125.664182.0187 1.336564.0213 2 0 .188077.0189.374293.01345.5625.03125zm-.5625-.71875c-.361918-.0363-.732594-.0831-1.09375-.125-1.449126-.148949-2.896716-.28744-4.34375-.4375v-.46875c.750615-.131758 1.497998-.281613 2.25-.40625-.753381.009-1.501283.03485-2.25.09375v-.40625c.886876.07925 1.771352.171897 2.65625.28125-.105027.0174-.207466.01395-.3125.03125.255884-.004.494261-.003.75 0 .967227.12619 1.946699.29301 2.90625.46875v.9375c-.188512.007-.373982.02525-.5625.03125zm-2.34375-1.4375c-.150401-.0196-.286962-.01265-.4375-.03125.798701-.13272 1.576566-.27173 2.375-.40625.316153.0162.652691.0443.96875.0625v.5c-.0103-.00004-.02072.00003-.03125 0-.955229-.0232-1.919569-.11414-2.875-.125zm1.9375-.4375c-1.475577-.0757-2.929384-.14187-4.40625-.1875.552536-.0881 1.103142-.19719 1.65625-.28125-.60778.03369-1.49158.101157-2.28125.15625v-.0625c.970152-.0562 1.941768-.09733 2.90625-.15625-.181219.0272-.381325.035-.5625.0625.967755-.0537 2.623692-.15232 3.65625-.21875v.53125c-.316167.0535-.652547.10298-.96875.15625zm-2.125-.53125c1.036758-.1554 2.056261-.28734 3.09375-.4375v.25c-1.032623.0667-2.060816.12441-3.09375.1875zm-2.28125.34375c-.213891.03411-.418317.0856-.625.125v-.125c.207974.0025.415401-.0064.625 0zm.6875 2.03125c-.435656-.0057-.874569-.0021-1.3125 0v-.15625c.436987.05771.876912.09516 1.3125.15625zm-79.3125.34375v-.46875c2.0010294.0083 4.000353.0059 6 0v.34375c-2.0006776.04551-4.0012725.09433-6 .125zm0-1.375v-.3125c1.9967931.03437 4.001268.07403 6 .125v.0625c-2.0018365.04468-3.9947149.09326-6 .125zm6-1.1875c-.666153-.0054-1.331826-.01984-2-.03125-1.33545-.004-2.664542.005-4 0v-.03125c.08032-.006.103774-.02555.1875-.03125-.06037-.00021-.127141.00021-.1875 0v-.125c.07628-.006.01377.006.09375 0 1.9691175-.163022 3.932906-.300809 5.90625-.40625v.25c-1.932892.06986-3.8520614.163938-5.78125.28125 1.252468.004 2.497538.02725 3.75.03125.674052.01025 1.353114-.0066 2.03125 0zm74.78125-.71875c-.140106-.0162-.309055-.0854-.46875-.15625.271004.0144.541518.01625.8125.03125-.09238.10465-.203644.14125-.34375.125zm.34375-.125c.0078-.009.02393-.02135.03125-.03125.03198-.0434.02547-.0892.03125-.15625.0906-.00009.190655.00011.28125 0 .07178.0856.149828.13247.21875.21875.110225.13799-.327608-.01215-.5-.03125-.01501-.00086-.04749.00085-.0625 0zm.34375-.1875c-.02046-.0244-.04179-.06965-.0625-.09375.60746-.006 1.232139.0115 1.78125 0 .263595-.005.548919-.02465.8125-.03125v.125c-.845516.002-1.685727-.001-2.53125 0zm-.0625-.09375c-.06833.00065-.149936-.00059-.21875 0-.0019-.0854-.0019-.15083-.03125-.25.08544.0912.168912.15512.25.25zm-.25-.25c-.02636-.0281-.03568-.0974-.0625-.125.01492-.001.01632.001.03125 0 .01032.0288.0228.0965.03125.125zm-.03125-.125c-.03107-.0868-.04891-.16734-.09375-.25.873467-.0658 1.752524-.10552 2.625-.1875.155788-.0146.199056-.01735.34375-.03125v.25c-.953954.0856-1.919048.15168-2.875.21875zm-.09375-.25c-.06047.005-.127036.02685-.1875.03125-.16468-.14984-.346981-.28802-.53125-.40625.210402-.22918.525626.0189.71875.375zm-.71875-.375c-.03348.0365-.06551.0929-.09375.15625-.349599.0656-.709171.14857-1.0625.1875-.211892.02335-.733175.04072-1.15625.0625v-.4375c.260495-.0158.522233-.01388.78125-.03125.408645-.0274.848403-.30516 1.21875-.125.106098.0516.21297.12364.3125.1875zm.53125.40625c.08468.077.169738.13604.25.21875-.20253.0141-.422355.0493-.625.0625-.644427.0419-1.558812.11283-2.4375.15625.54247.0535 1.084274.0862 1.625.15625.03541.005.08792.02195.125.03125-.621828.0024-1.184118.000568-1.78125 0v-.1875-.25c.949111-.05829 1.898843-.117384 2.84375-.1875zm-1.0625.625c.495424-.002.924469-.02725 1.40625-.03125.000528.0232.0019.07245 0 .09375-.430319.00045-.850925-.00016-1.28125 0-.04532-.0162-.08137-.0514-.125-.0625zm.125.0625c.135512.0485.267262.0946.40625.15625-.769516-.0409-1.541391-.08703-2.3125-.125v-.03125c.635315.000137 1.270294.00024 1.90625 0zm-79.90625.21875v-.0625c1.689788-.007 3.372733.009 5.0625 0 .181468.009.349767.02295.53125.03125-1.871705.0119-3.722024.02615-5.59375.03125zm5.0625-.0625c-1.690443-.0817-3.374563-.18272-5.0625-.3125v-.1875c1.079792-.001 2.170287-.01945 3.25-.03125.916013.04559 1.833513.06311 2.75.09375v.4375c-.312629-.000613-.625355-.0017-.9375 0zm-1.8125-.53125c-.535713-.0267-1.089522-.06205-1.625-.09375.885552-.0235 1.770257-.05375 2.65625-.09375.216711-.0098 1.090065-.0579 1.71875-.09375v.21875c-.517498.01386-.996239.02256-1.5625.03125-.400203.006-.787275.02685-1.1875.03125zm-1.625-.09375c-.543979.0144-1.081079-.009-1.625 0v-.125c.541416.0375 1.083292.0929 1.625.125zm-1.625-2.15625v-.125c.0075.00017.0237-.00016.03125 0 1.9863616.02776 3.978089.02201 5.96875.03125v.0625c-1.958802-.00008-3.9178965.0034-5.875.03125-.04527.001-.07972-.001-.125 0zm78-.15625v-.0625c2.000723-.02009 4.002201-.03922 6-.0625v.03125c-1.999796.02336-3.999872.06433-6 .09375zm-72-.125c-1.714567-.10701-3.4573061-.18373-6-.28125v-.03125c2.5613236.09832 4.283981.17315 6 .28125zm78-.40625c-.482281-.007-.955226-.01905-1.4375-.03125-1.514178-.05774-3.03861-.08543-4.5625-.125v-.53125c1.291856-.04316 2.582059-.10362 3.875-.15625.70938-.0187 1.415604-.02425 2.125-.03125zm-84-.4375v-.0625c.143434.002.294067-.001.4375 0-.14317.0119-.294337.0505-.4375.0625zm.4375-.0625c.135717-.0113.270533-.02025.40625-.03125 1.602905.0164 3.208349.0515 4.8125.0625-1.737982-.006-3.47854-.01515-5.21875-.03125zm.40625-.03125c-.1511-.002-.317643.001-.46875 0 1.8731908-.15528 3.743001-.30599 5.625-.4375v.03125c-1.721247.12112-3.4279853.26411-5.15625.40625zm-.46875 0-.375.03125v-.03125c.128442.001.246558-.001.375 0zm77.625-.34375v-.0625c.125144 0 .24597.00001.375 0-.124649.02247-.250578.03863-.375.0625zm.375-.0625c.08296-.0149.16703-.01645.25-.03125 1.654509-.00014 3.315321.00001 4.75 0 .211451 0 .413526-.00005.625 0v.03125c-.203638-.00002-.390126 0-.59375 0-1.516605.00001-3.278732-.00015-5.03125 0zm.25-.03125c-.216663.00002-.419958.00001-.625 0v-.1875c.09446-.01669.187025-.04803.28125-.0625.513071.00047 1.018178.03075 1.53125.03125-.399203.0699-.788558.14715-1.1875.21875zm1.1875-.21875c.06853-.012.150212-.0505.21875-.0625 1.325857.002 2.642893-.002 3.96875 0v.0625c-1.395822-.003-2.791679.002-4.1875 0zm.21875-.0625c-.512267-.00058-1.050233.00047-1.5625 0 .315856-.0485.652872-.0767.96875-.125.451469.006.892309.02255 1.34375.03125-.256014.0438-.494108.04915-.75.09375zm.75-.09375c1.072963-.1836 2.143151-.39744 3.21875-.5625v.5625c-.19694.005-.396911.02595-.59375.03125-.875792-.0319-1.749092-.01405-2.625-.03125zm-1.34375-.03125c-.479421-.0062-.958276.0039-1.4375 0v-.71875c1.557382-.01634 3.102709-.06469 4.65625-.125.448979-.0351.893135-.05925 1.34375-.09375v.21875c-1.524296.2318-3.038386.48573-4.5625.71875zm-.96875.125c-.06736.0103-.120142.02095-.1875.03125-.09386-.00009-.187421.00007-.28125 0v-.03125c.156195.0001.312595-.00015.46875 0zm-78.46875.03125v-.03125c1.99986-.0082 4.000044-.0057 6 0v.03125c-1.999423.006-3.9959325.0087-6 0zm0-.5v-.03125c.945228-.00029 1.86777.0005 2.8125 0 1.0613461-.00035 2.125088 0 3.1875 0v.03125c-1.051992 0-2.1053095-.00034-3.15625 0-.953016.00051-1.889951.00025-2.84375 0zm84-.9375c-1.993249-.21748-3.994201-.34732-6-.46875v-.09375c3.495621.05687 2.976384.05287 6 .0625zm-84-.6875v-.03125c.264109-.032.548228-.0947.8125-.125 2.662907-.30583 2.861105-.31793 3.375-.375.120647.00049.254361-.00055.375 0-1.509871.16822-3.053105.35883-4.5625.53125zm4.5625-.53125c.486779-.05426.95966-.12705 1.4375-.1875v.21875c-.479038-.0041-.958625-.02908-1.4375-.03125zm-.375 0c-1.055652-.004-2.100512-.03125-3.15625-.03125-.338911-.001-.692395-.002-1.03125 0v-.34375c.240318.004.478411-.004.71875 0 1.7556572.03978 3.524264.08283 5.28125.125v.03125c-.490858.05949-1.545652.18912-1.8125.21875zm79.8125-.09375c-1.996887-.01098-4.000337-.02754-6-.0625v-.75c1.997191-.02468 3.999884-.02549 6-.03125zm-84-.40625v-.0625c.241521.003.477222-.002.71875 0 1.738074.0133 3.480633.03485 5.21875.03125-1.723075-.004-3.464489.01655-5.1875.03125-.249679.002-.500335-.004-.75 0zm0-.53125c2.0045735-.00026 3.9986086-.03563 6-.0625v.03125c-2.0003717.0051-3.9992158.01888-6 .03125zm84-1.40625c-1.997122-.14588-4.003832-.28271-6-.40625v-.03125c1.550802.10164 3.108799.20344 4.65625.3125.628077.0443.850122.05595 1.34375.09375zm-78-.6875c-1.347137-.08074-2.686765-.1567-4.03125-.25-.651491-.0504-1.318861-.12196-1.96875-.1875v-.3125c.512073.0126 1.019056.02225 1.53125.03125-.516529-.0575-1.016116-.11993-1.53125-.1875.165701-.0118.334299-.0507.5-.0625 1.826946.09665 3.669398.16019 5.5.21875v.09375c-1.4796-.01677-2.9588193-.03625-4.4375-.0625 1.4754452.13604 2.958988.23287 4.4375.34375zm-5.5-.96875c-.06086-.003-.12665-.02815-.1875-.03125 1.555181-.11055 3.102577-.21307 4.65625-.34375.366538-.03083.674454-.06379 1.03125-.09375v.03125c-.336025.02971-.622685.06464-.96875.09375-1.503087.12639-3.026696.237-4.53125.34375zm-.1875-.03125c-.105627.0079-.206874.02375-.3125.03125v-.03125c.106167.006.206325-.006.3125 0zm83.6875.8125c-2.002057-.07846-3.997311-.13089-6-.15625v-.4375c1.510212-.01699 3.019758-.03512 4.53125-.09375.492896.0396.976353.0799 1.46875.125zm-1.46875-.6875c-1.512799-.12144-3.015192-.20147-4.53125-.28125v-.25c1.229859.01059 2.487268.02656 2.90625.03125 1.032912.0115 2.060707.0376 3.09375.0625v.375c-.49142.0215-.977259.0435-1.46875.0625zm-82.53125-1.6875v-.0312c.976187-.11828 1.927629-.24491 2.90625-.34375 1.397014-.14111 2.372636-.23351 3.34375-.3125-.01084.0312-.02116.0622-.03125.0937-2.080008.16961-4.1503122.35591-6.21875.59375zm77.59375-1.09375c-.01595-.0335-.04565-.0608-.0625-.0937.697472.005 1.394961-.005 2.09375 0-.677411.0197-1.353975.0692-2.03125.0937zm6.40625-.0625c-1.31115-.008-2.626358-.0222-3.9375-.0312.871947-.0217 1.721738-.0436 2.59375-.0625.577612-.0125.910731-.0239 1.34375-.0312v.125zm-6.5625-.21875c-.05346-.0924-.09579-.19374-.15625-.28125 2.052114-.0101 4.10409-.0186 6.15625-.0312-.36855.0152-.654816.0109-1.09375.0312-.993955.0464-2.006285.10475-3 .15625-.635951.0386-1.270827.087-1.90625.125zm6-.3125c.191936-.008.382707-.0242.5625-.0312v.0312c-.188403.001-.374097-.001-.5625 0zm-82.78125.15625c-.218726-.0149-.43783-.01405-.65625-.03125v-.0312c.224565.0187.427578.0441.65625.0625zm76.5625-.1875c-.0049-.007.0049-.0246 0-.0312 2.259043-.19232 4.524864-.37674 6.78125-.5625-2.262007.18626-4.520385.39581-6.78125.59375zm-68.78125-1.34375c-2.446583-.16753-4.8910272-.27319-7.34375-.34375-.347575-.006-.71494-.0561-1.0625-.0625.0096-.10603.04791-.20803.0625-.3125 1.584333-.0113 3.165675-.002 4.75 0 2.566941.10516 5.121421.2647 7.6875.40625h-2.53125c-.554 0-1.083625.11062-1.5625.3125zm-3.59375-.71875c-.737591-.0302-1.481038-.0349-2.21875-.0625 1.856364.004 3.706171.0132 5.5625 0 .513674.0279 1.018295.0555 1.53125.0937-1.628987-.0152-3.245962-.0292-4.875-.0312zm4.875.0312c2.202146.0204 4.423082.0543 6.625.0937 3.511252.0925 7.050825.11069 10.5625.125-3.390337.0494-6.787977.13421-10.1875.15625h-3.40625-.15625c-1.147547-.15633-2.284628-.28877-3.4375-.375zm17.1875.21875c2.176978-.0318 4.353904-.0417 6.53125-.0312-.428142.006-.852339.025-1.28125.0312-1.748544.0123-3.501699.007-5.25 0zm-18.71875-.3125c-.534781-.0291-1.058428-.0425-1.59375-.0625.21111-.004.413896-.0276.625-.0312-.21.005-.413098-.002-.625 0-.03018-.001-.06357.001-.09375 0-1.973474-.0724-3.933161-.097-5.90625-.125-.152289-.001-.316639.00017-.46875 0 .03823-.20619.09922-.39498.15625-.59375.06813-.004.119424-.0268.1875-.0312 2.777111.22192 5.564781.49127 8.34375.6875.0754-.002.143356.002.21875 0 .655072.0453 1.313037.12062 1.96875.15625-.936714.0108-1.875758-.006-2.8125 0zm2.8125 0c1.701462-.0194 3.392437-.0624 5.09375-.0937 5.175097-.14249 10.354717-.19208 15.53125-.15625 6.632628.0941 13.273459.16716 19.90625.25.79202.002 1.582979-.002 2.375 0-6.836934.11849-13.69346.20312-20.53125.25-7.061641.0288-14.128038.008-21.1875-.1875-.399449-.0172-.788351-.0408-1.1875-.0625zm42.90625 0c4.162584-.0721 8.338146-.13681 12.5-.25.830081-.0216 4.68029-.13163 8.0625-.21875 2.527179-.13068 5.034705-.26979 7.5625-.375.08985.0108.191075.0203.28125.0312-1.23915.052-2.480093.12674-3.71875.1875-2.4777.12155-1.712568.0583-2.40625.0937.909189-.0231 2.404389-.0564 2.6875-.0625 1.306667-.0283 2.956447-.0377 4.53125-.0625.05249.008.103526.0238.15625.0312-1.625246.0251-3.309646.0648-4.65625.0937-.503374.0109-2.730654.041-4.78125.0937-.02106.004.290093.02-6.03125.3125-1.13779.0622-2.299067.082-3.4375.125-.181034-.00003-.350215.00004-.53125 0 1.310035-.0469 2.628292-.0847 3.9375-.15625 1.497612-.0693 2.971146-.14173 4.46875-.21875-2.748543.0714-5.460039.13971-6.09375.15625-3.595351.0978-7.21659.15215-10.8125.21875-.573273-.001-1.145477.001-1.71875 0zm1.71875 0c2.836194.006 5.663795-.00069 8.5 0-.371382.0133-.722322.0507-1.09375.0625-.07285.002-.145904-.002-.21875 0-3.499529.001-7.000491-.01-10.5 0 1.110574-.018 2.201966-.042 3.3125-.0625zm9.03125 0c4.865304.00071 9.728454.0312 14.59375.0312 1.985577-.0669 3.066703-.0791 4.625-.1875.02367.13261.04693.23969.0625.375-1.547096-.0879-3.106552-.13518-4.65625-.15625-5.241746 0-10.476988-.002-15.71875 0 .369816-.0125.723985-.0485 1.09375-.0625zm18.90625-.625c.07925-.001.145104-.00054.21875 0 .0041.0157.02732.0155.03125.0312-.0829-.0157-.166653-.019-.25-.0312zm-.15625-.0312c-.363705-.0524-.738263-.11192-1.09375-.15625.4766-.0199.929936-.0164 1.40625-.0312.01932.0657.0452.12097.0625.1875-.127387-.00036-.240499-.002-.375 0zm-1.375-.1875c-1.530501-.18386-3.034585-.31063-4.6875-.4375-2.053989-.15767-4.10312-.2798901-6.15625-.3750001 2.020851.0932 4.038404.1782801 6.0625.2500001 2.112799.0748 4.230772.0889 6.34375.15625.0406.11191.09042.22904.125.34375-.04547-.001-.06174-.004-.15625 0-.505801.019-1.025485.0415-1.53125.0625zm-10.84375-.8125001c-2.05313-.0951-4.098604-.16488-6.15625-.25-6.182646-.19155-12.409668-.33352-18.59375-.46875 1.599662.003 3.212856.0264 4.8125.0312 4.575969.15055 9.17274.28762 13.75.40625 2.065834.0854 4.124606.18606 6.1875.28125zm-19.9375-.6875c-1.515367-.0499-3.015951-.10285-4.53125-.15625.762075-.0732 1.519162-.14569 2.28125-.21875 5.240789.019 10.479821.0407 15.71875.1875 1.850278.0174 3.713573.13947 5.5625.21875-5.14522.009-10.292345.008-15.4375-.0312-1.192152-.008-2.401575.004-3.59375 0zm-2.25-.375c-.08294-.00031-.167055.00029-.25 0 .354723-.034.707756-.0912 1.0625-.125.09806-.00038.183188.00038.28125 0-.368566.035-.72521.0897-1.09375.125zm1.09375-.125c.655007-.0623 1.313599-.12692 1.96875-.1875 4.029073-.0424 8.065923-.0767 12.09375-.1875 2.532809-.0244 5.060907-.27499 7.59375-.25.104304.002.208206-.002.3125 0 1.499539.014 3.000404.0369 4.5.0312 1.849514-.006 3.712301-.0743 5.5625-.125.01878.0192.04396.0431.0625.0625-1.081864.0301-2.167626.0423-3.25.0625-1.751838.0407-3.49822.0636-5.25.0312.994694.02 1.975013.0465 2.96875.0937 1.366551.065 4.212301.24526 6.0625.4375.07453.1019.181375.20621.25.3125-4.341312-.14677-8.686966-.32962-13.03125-.34375-5.17409-.009-10.357275-.0131-15.53125.0312-1.440747.0106-2.871719.0256-4.3125.0312zm1.96875-.1875c-.105417.001-.207083-.001-.3125 0 1.072623-.0997 2.145489-.18913 3.21875-.28125 1.138866-.0978 2.297744-.19509 3.4375-.28125.150735.001.286764-.00071.4375 0-1.275707.0959-2.569085.20311-3.84375.3125-.979537.0841-1.958508.15949-2.9375.25zm6.78125-.5625c.113141-.008.230606-.0229.34375-.0312 1.450168.009 2.896591.0474 4.34375.0625-1.565031-.0108-3.117814-.0203-4.6875-.0312zm.34375-.0312c-.151323-.00072-.317428.00071-.46875 0 1.064186-.0801 2.123505-.16745 3.1875-.25 2.173228-.0921 4.356955-.19066 6.53125-.25 4.301306-.11739 8.634287-.023 12.9375-.125.05037.0375.107019.0861.15625.125-2.370897-.0514-4.755434-.0452-7.125-.0312-1.978981.0114-3.959186.009-5.9375.0625-2.174268.0593-4.326803.18914-6.5.28125-.92804.072-1.853022.11794-2.78125.1875zm-.46875 0c-.113111.009-.199392.0229-.3125.0312-1.474378-.0111-2.961173-.0407-4.4375-.0625 1.585873.0228 3.160891.02 4.75.0312zm-6.96875.5937c-.649706.0604-1.287924.1256-1.9375.1875-3.628379.0138-7.246647.0413-10.875.0625 2.620018-.0605 5.255537-.11351 7.875-.15625 1.649138-.0255 3.288206-.0764 4.9375-.0937zm-12.8125.25c.612315.0172 1.200285.041 1.8125.0625-2.40676.0185-4.81268.071-7.21875.125-.323572-.006-.64522-.0239-.96875-.0312 1.682889-.0531 3.3793-.11414 5.0625-.15625-.226293.001-.46121-.001-.6875 0-2.671449.0114-5.359555.013-8.03125 0 1.112459.0602 2.230413.12847 3.34375.15625-1.456653.0466-2.918681.0997-4.375.15625-3.413566-.0279-6.837675-.0441-10.25-.15625-1.865882-.0752-5.154684-.21729-7-.3125-2.937922-.15158-5.877291-.33219-8.8125-.53125.022-.0233.04015-.071.0625-.0937 5.186744.31022 10.368069.53967 15.5625.65625 3.728733.0744 7.45802.10741 11.1875.125-1.86784-.10854-4.934142-.35723-6.6875-.5-6.261417-.65096-12.52436-1.0735-18.8125-1.28125.110325-.0675.19794-.15776.3125-.21875.02898.00016.03342-.00016.0625 0 1.59925.009 3.355531.0309 3.4375.0312-.172634-.009-.327337-.0224-.5-.0312.133568.0007.496602-.00054.59375 0 6.275427.0339 12.568165.0524 18.84375.0625-6.265275-.01-12.547473.003-18.8125-.0312 1.546781.084 3.080447.16093 4.625.28125 2.590368.20178 4.027471.36817 6.625.625 1.154544.11416 2.313967.26343 3.46875.375 1.512919.11769 5.412871.40255 6.9375.46875 1.133502.0492 2.27192.0419 3.40625.0625 2.110097.0383 4.202836.1 6.3125.15625.158869.004.341137-.004.5 0zm-32.5-2c-.63709-.004-1.818976.0135-2.9375 0 .0788-.0409.169346-.0873.25-.125.889688.0491 1.802432.0788 2.6875.125zm21.4375 2.3125c.196351.001.397397-.001.59375 0-1.7856.0659-3.559015.15048-5.34375.25-5.41084.28767-10.842543.62135-16.25.9687501 2.216446-.14254 4.442707-.2969401 6.65625-.4375001 5.149608-.327 4.430075-.28961 9.5625-.5625 1.599071-.0757 3.18166-.15669 4.78125-.21875zm-21 1.2187501c-2.13444.13713-4.271888.26776-6.40625.40625-.06827-.006-.119481.004-.1875 0 .0064-.0224-.0068-.0714 0-.0937 2.202487-.0599 4.392153-.17091 6.59375-.3125zm21.59375-1.2187501c1.6931-.0625 3.368823-.087 5.0625-.125 2.911767.0521 5.839287.0333 8.75.125.97406.0225 1.932175.041 2.90625.0625-.07534.007-.143404.0242-.21875.0312-2.581491-.005-5.199827-.009-7.78125-.0312-2.915091-.0202-5.80359-.0407-8.71875-.0625zm16.5.0937c.09031.00018.159687-.00018.25 0-1.487776.14154-2.948739.30763-4.4375.4375-6.521789.5689801-13.059088.9731401-19.59375 1.3437501-4.050022.2447-8.101627.3554-12.15625.4375 4.04576-.11484 8.082753-.29044 12.125-.46875 6.534627-.37057 13.040749-.80605 19.5625-1.3750001 1.408686-.12288 2.842219-.2414 4.25-.375zm.25 0c.0606-.006.158146-.0256.21875-.0312.203936.004.389812.0268.59375.0312-.26341-.00048-.549091.00052-.8125 0zm.21875-.0312c-.07547-.001-.174529.001-.25 0 .436442-.0415.87609-.052 1.3125-.0937-.357068.0314-.705256.0598-1.0625.0937zm1.0625-.0937c-1.470115-.052-2.936163-.10093-4.40625-.15625-.362937-.015-.73077-.0493-1.09375-.0625 1.990199-.0145 3.978441.00071 5.96875 0 .588137.002 1.193095-.002 1.78125 0-.746845.0717-1.503157.14705-2.25.21875zm-40 2.4062501c-1.293936.022-2.581805.0744-3.875.0937-.166779.002-.333095-.003-.5 0-.1281-.005-.278136-.0268-.40625-.0312 1.592939-.0172 3.188489-.026 4.78125-.0625zm-4.78125.06245c-.490717.005-.978019.0282-1.46875.0312-.05268.00097-.103575-.00092-.15625 0 .0057-.0376.02499-.0564.03125-.0937.53545.0189 1.058627.0433 1.59375.0625zm81.53125-2.0625001c-3.062977-.079-6.155814-.14271-9.21875-.1875 1.958554-.052 3.947466-.0438 5.90625 0 1.083796.0194 2.167838.0649 3.25.0937.02101.0377.04222.0558.0625.0937zm-9.21875-.1875c-.421795.0112-.828307.0122-1.25.0312-.78556.007-1.558764-.0305-2.34375-.0625 1.206614-.004 2.387381.0135 3.59375.0312zm-20.21875-1.375c-1.528295-.0232-3.067958-.0423-4.59375-.0937-3.474221-.11701-7.389431-.31687-10.875-.5-1.244392-.0669-2.469808-.183-3.71875-.25 1.237925.0707 2.48302.16207 3.71875.21875 3.484563.1831 7.401886.383 10.875.5 1.536367.0518 3.060013.1023 4.59375.125zm27.25-.8125c-4.979293-.0961-9.95609-.22026-14.9375-.25 4.681444-.031 9.383725-.12308 14.0625-.21875.309174.14.594101.28417.875.46875zm-47.375-.0625c-1.096132-.0577-2.155321-.13713-3.25-.1875.158056.009.31069-.009.46875 0 .930062.0547 1.849071.13302 2.78125.1875zm-2.78125-.1875c9.99968.008 19.968614.001 29.96875 0 1.702042.0185 3.423266.0107 5.125 0-1.692088-.01-3.401393.0135-5.09375.0312-10.005638.001-19.994363-.0234-30-.0312zm-.46875 0c-.09778.00003-.185041.00008-.28125 0-.164984.00005-.330976.00014-.5 0-4.172883-.16711-8.387237-.16922-12.5625-.21875-4.402561-.0305-8.783935-.0405-13.1875-.0312.765739-.33687 1.580236-.54468 2.46875-.5625h.15625c3.402164.0145 6.786033.043 10.1875.125 4.576748.12972 9.148503.41806 13.71875.6875z" fill="#55280a" fill-rule="evenodd" opacity=".5"/><path d="m12 6c-3.324 0-6 2.676-6 6v2 68 2c0 .334721.04135.6507.09375.96875.0487.295596.09704.596915.1875.875.0099.03038.02089.0636.03125.09375.09886.287771.23488.547452.375.8125.144592.273507.315616.535615.5.78125s.373776.473472.59375.6875c.439947.428056.94291.814526 1.5 1.09375.278545.139612.573473.246947.875.34375-.256202-.100222-.486711-.236272-.71875-.375-.0074-.0044-.02387.0045-.03125 0-.03193-.0193-.06229-.04251-.09375-.0625-.120395-.0767-.231023-.163513-.34375-.25-.106173-.0808-.213281-.161112-.3125-.25-.17793-.161433-.34746-.345388-.5-.53125-.107579-.130255-.218394-.265285-.3125-.40625-.02509-.03838-.03845-.08587-.0625-.125-.06476-.103032-.130228-.204517-.1875-.3125-.101008-.194706-.205675-.415701-.28125-.625-.008-.02181-.02359-.04055-.03125-.0625-.03183-.09195-.0358-.186831-.0625-.28125-.030332-.106618-.070389-.203031-.09375-.3125-.072879-.341512-.125-.698205-.125-1.0625v-2-68-2c0-2.781848 2.218152-5 5-5h2 68 2c2.781848 0 5 2.218152 5 5v2 68 2c0 .364295-.05212.720988-.125 1.0625-.04415.206893-.08838.397658-.15625.59375-.0077.02195-.0233.04069-.03125.0625-.06274.173739-.138383.367449-.21875.53125-.04158.0828-.07904.169954-.125.25-.0546.09721-.126774.18835-.1875.28125-.09411.140965-.204921.275995-.3125.40625-.143174.17445-.303141.346998-.46875.5-.01117.0102-.01998.02115-.03125.03125-.138386.125556-.285091.234436-.4375.34375-.102571.07315-.204318.153364-.3125.21875-.0074.0045-.02384-.0044-.03125 0-.232039.138728-.462548.274778-.71875.375.301527-.0968.596455-.204138.875-.34375.55709-.279224 1.060053-.665694 1.5-1.09375.219973-.214028.409366-.441865.59375-.6875s.355408-.507743.5-.78125c.14012-.265048.276135-.524729.375-.8125.01041-.03078.02133-.06274.03125-.09375.09046-.278085.1388-.579404.1875-.875.0524-.31805.09375-.634029.09375-.96875v-2-68-2c0-3.324-2.676-6-6-6z" fill="url(#c)" opacity=".35"/><path d="m12 90c-3.324 0-6-2.676-6-6v-2-68-2c0-.334721.04135-.6507.09375-.96875.0487-.295596.09704-.596915.1875-.875.00988-.03038.020892-.0636.03125-.09375.098865-.287771.2348802-.547452.375-.8125.1445918-.273507.3156161-.535615.5-.78125s.3737765-.473472.59375-.6875c.439947-.428056.94291-.814526 1.5-1.09375.278545-.139612.5734731-.246947.875-.34375-.2562018.100222-.4867109.236272-.71875.375-.00741.0044-.023866-.0045-.03125 0-.031933.0193-.062293.04251-.09375.0625-.120395.0767-.2310226.163513-.34375.25-.1061728.0808-.2132809.161112-.3125.25-.1779299.161433-.3474596.345388-.5.53125-.1075789.130255-.2183939.265285-.3125.40625-.025089.03838-.038446.08587-.0625.125-.064763.103032-.1302275.204517-.1875.3125-.1010083.194706-.2056748.415701-.28125.625-.00796.02181-.023589.04055-.03125.0625-.0318251.09195-.0358045.186831-.0625.28125-.0303323.106618-.0703894.203031-.09375.3125-.0728786.341512-.125.698205-.125 1.0625v2 68 2c0 2.781848 2.2181517 5 5 5h2 68 2c2.781848 0 5-2.218152 5-5v-2-68-2c0-.364295-.05212-.720988-.125-1.0625-.04415-.206893-.08838-.397658-.15625-.59375-.0077-.02195-.0233-.04069-.03125-.0625-.06274-.173739-.138383-.367449-.21875-.53125-.04158-.0828-.07904-.169954-.125-.25-.0546-.09721-.126774-.18835-.1875-.28125-.09411-.140965-.204921-.275995-.3125-.40625-.143174-.17445-.303141-.346998-.46875-.5-.01117-.0102-.01998-.02115-.03125-.03125-.138386-.125556-.285091-.234436-.4375-.34375-.102571-.07315-.204318-.153364-.3125-.21875-.0074-.0045-.02384.0044-.03125 0-.232039-.138728-.462548-.274778-.71875-.375.301527.0968.596455.204138.875.34375.55709.279224 1.060053.665694 1.5 1.09375.219973.214028.409366.441865.59375.6875s.355408.507743.5.78125c.14012.265048.276135.524729.375.8125.01041.03078.02133.06274.03125.09375.09046.278085.1388.579404.1875.875.0524.31805.09375.634029.09375.96875v2 68 2c0 3.324-2.676 6-6 6z" fill="url(#e)" opacity=".2"/><path d="m12 80v1c0 2.216 1.784 4 4 4h64c2.216 0 4-1.784 4-4v-1c0 2.216-1.784 4-4 4h-64c-2.216 0-4-1.784-4-4z" fill="#d59266" opacity=".2"/></g><rect height="66" rx="12" style="opacity:.1;stroke:#fefefe;stroke-width:.5;stroke-linecap:round;clip-path:url(#g);fill:url(#i);filter:url(#h)" width="66" x="15" y="15"/></svg>